<svg width="180" height="52" viewBox="0 0 180 52" fill="none" xmlns="http://www.w3.org/2000/svg">
<path d="M32.9804 26.9625C32.9524 23.626 35.7165 21.9997 35.8452 21.927C34.2785 19.6468 31.8501 19.3338 30.9941 19.3115C28.9518 19.0991 26.9767 20.5299 25.936 20.5299C24.8784 20.5299 23.2781 19.3338 21.5492 19.3674C19.3279 19.4009 17.252 20.6863 16.1162 22.6759C13.7662 26.7389 15.5175 32.7076 17.7724 35.9938C18.897 37.6033 20.212 39.3973 21.9353 39.3358C23.6195 39.2688 24.2518 38.2628 26.2828 38.2628C28.2971 38.2628 28.8902 39.3358 30.6472 39.2967C32.4544 39.2688 33.5959 37.6816 34.6813 36.0609C35.9851 34.2166 36.5054 32.4003 36.5278 32.3108C36.4831 32.2829 33.014 30.9584 32.9804 26.9625ZM29.6624 17.1487C30.5688 16.0142 31.1899 14.4773 31.0164 12.9124C29.7072 12.9683 28.0621 13.8178 27.1221 14.9244C26.2884 15.9024 25.5386 17.5007 25.7345 19.0041C27.2005 19.1103 28.7168 18.2608 29.6624 17.1487Z" fill="#347881"/>
<path d="M47.2595 18.1871C46.6441 18.1871 46.1125 18.1592 45.6705 18.1089V11.4416C46.2916 11.3465 46.9183 11.2962 47.5449 11.3018C50.0796 11.3018 51.249 12.5481 51.249 14.5768C51.2434 16.9184 49.867 18.1871 47.2595 18.1871ZM47.6344 12.1569C47.2931 12.1569 47.0022 12.1793 46.7616 12.2295V17.2929C46.8903 17.3153 47.1421 17.3208 47.4946 17.3208C49.1563 17.3208 50.102 16.3764 50.102 14.6103C50.0963 13.0288 49.2403 12.1569 47.6344 12.1569ZM54.8859 18.2374C53.4591 18.2374 52.5303 17.17 52.5303 15.7225C52.5303 14.2135 53.4759 13.1405 54.9643 13.1405C56.3742 13.1405 57.32 14.1576 57.32 15.6442C57.32 17.17 56.3463 18.2374 54.8859 18.2374ZM54.9251 13.9341C54.1417 13.9341 53.6382 14.6662 53.6382 15.6945C53.6382 16.7005 54.1529 17.4326 54.9139 17.4326C55.6805 17.4326 56.1896 16.6502 56.1896 15.6722C56.1952 14.6774 55.6916 13.9341 54.9251 13.9341ZM65.4666 13.2411L63.9391 18.1256H62.9431L62.3109 16.0075C62.154 15.4877 62.0201 14.9624 61.9193 14.4315H61.897C61.8186 14.9624 61.6672 15.4989 61.5049 16.0075L60.8335 18.1256H59.8266L58.3884 13.2411H59.5075L60.0613 15.5604C60.1904 16.1137 60.302 16.6334 60.3919 17.1309H60.4142C60.4926 16.7173 60.6266 16.2087 60.8172 15.5716L61.5109 13.2411H62.3947L63.0607 15.5213C63.223 16.0746 63.3515 16.6167 63.4523 17.1309H63.48C63.553 16.6278 63.6592 16.0969 63.8106 15.5213L64.4036 13.2411H65.4666ZM71.1011 18.1256H70.0158V15.3201C70.0158 14.4539 69.6852 14.0235 69.0307 14.0235C68.3876 14.0235 67.9454 14.5768 67.9454 15.2195V18.1256H66.8601V14.6382C66.8601 14.208 66.8486 13.7441 66.8209 13.2411H67.7777L67.8277 13.9956H67.8555C68.1469 13.4759 68.7399 13.1405 69.4059 13.1405C70.4296 13.1405 71.1065 13.923 71.1065 15.2027L71.1011 18.1256ZM74.0945 18.1256H73.0092V11H74.0945V18.1256ZM78.0616 18.2374C76.6348 18.2374 75.7058 17.17 75.7058 15.7225C75.7058 14.2135 76.6517 13.1405 78.14 13.1405C79.5498 13.1405 80.4958 14.1576 80.4958 15.6442C80.4958 17.17 79.5167 18.2374 78.0616 18.2374ZM78.1008 13.9341C77.3171 13.9341 76.814 14.6662 76.814 15.6945C76.814 16.7005 77.3286 17.4326 78.0893 17.4326C78.8561 17.4326 79.3652 16.6502 79.3652 15.6722C79.3652 14.6774 78.8675 13.9341 78.1008 13.9341ZM84.7814 18.1256L84.7029 17.5611H84.6752C84.3452 18.0138 83.8584 18.2318 83.243 18.2318C82.3641 18.2318 81.7433 17.6171 81.7433 16.7955C81.7433 15.5884 82.7894 14.968 84.6022 14.968V14.8786C84.6022 14.2359 84.2614 13.9117 83.5899 13.9117C83.1085 13.9117 82.6832 14.0347 82.314 14.275L82.0956 13.5597C82.5493 13.2802 83.1139 13.1349 83.7745 13.1349C85.0498 13.1349 85.6989 13.8056 85.6989 15.1524V16.952C85.6989 17.4438 85.7213 17.8294 85.7719 18.12L84.7814 18.1256ZM84.6305 15.6945C83.4216 15.6945 82.8177 15.9851 82.8177 16.6781C82.8177 17.1923 83.1308 17.4438 83.5616 17.4438C84.116 17.4438 84.6305 17.0246 84.6305 16.449V15.6945ZM90.9643 18.1256L90.9142 17.3432H90.8858C90.5727 17.9356 90.0467 18.2374 89.3137 18.2374C88.1331 18.2374 87.2602 17.2035 87.2602 15.7448C87.2602 14.2191 88.1669 13.1405 89.403 13.1405C90.0581 13.1405 90.5221 13.3585 90.7797 13.8056H90.802V11H91.8872V16.8067C91.8872 17.2761 91.8987 17.7232 91.9265 18.12H90.9643V18.1256ZM90.8074 15.253C90.8074 14.5712 90.3544 13.9844 89.6606 13.9844C88.8546 13.9844 88.3624 14.6998 88.3624 15.7001C88.3624 16.6838 88.8715 17.36 89.6383 17.36C90.3206 17.36 90.8074 16.7676 90.8074 16.0634V15.253ZM98.7922 18.2374C97.3655 18.2374 96.4365 17.17 96.4365 15.7225C96.4365 14.2135 97.3818 13.1405 98.8707 13.1405C100.281 13.1405 101.226 14.1576 101.226 15.6442C101.226 17.17 100.253 18.2374 98.7922 18.2374ZM98.8315 13.9341C98.0478 13.9341 97.5441 14.6662 97.5441 15.6945C97.5441 16.7005 98.0593 17.4326 98.82 17.4326C99.5868 17.4326 100.096 16.6502 100.096 15.6722C100.101 14.6774 99.5976 13.9341 98.8315 13.9341ZM107.073 18.1256H105.987V15.3201C105.987 14.4539 105.657 14.0235 105.003 14.0235C104.359 14.0235 103.918 14.5768 103.918 15.2195V18.1256H102.832V14.6382C102.832 14.208 102.821 13.7441 102.793 13.2411H103.749L103.8 13.9956H103.828C104.119 13.4759 104.712 13.1405 105.378 13.1405C106.402 13.1405 107.079 13.923 107.079 15.2027V18.1256H107.073ZM114.381 14.057H113.183V16.4266C113.183 17.0302 113.39 17.332 113.815 17.332C114.005 17.332 114.168 17.3097 114.297 17.2817L114.325 18.1033C114.112 18.1815 113.832 18.2262 113.48 18.2262C112.623 18.2262 112.109 17.7568 112.109 16.5161V14.0515H111.393V13.2355H112.109V12.3413L113.178 12.0172V13.2355H114.375L114.381 14.057ZM120.138 18.1256H119.052V15.3425C119.052 14.4706 118.722 14.0291 118.068 14.0291C117.503 14.0291 116.983 14.4092 116.983 15.186V18.1312H115.897V11H116.983V13.9341H117.005C117.346 13.4032 117.844 13.1405 118.476 13.1405C119.511 13.1405 120.144 13.9452 120.144 15.2195L120.138 18.1256ZM126.03 15.946H122.768C122.79 16.8682 123.4 17.3935 124.307 17.3935C124.788 17.3935 125.235 17.3153 125.627 17.1644L125.795 17.9188C125.331 18.12 124.788 18.2206 124.155 18.2206C122.628 18.2206 121.722 17.2538 121.722 15.7616C121.722 14.2638 122.65 13.1405 124.032 13.1405C125.28 13.1405 126.064 14.0626 126.064 15.4598C126.074 15.6163 126.064 15.784 126.03 15.946ZM125.034 15.1692C125.034 14.4147 124.654 13.8838 123.96 13.8838C123.333 13.8838 122.841 14.4259 122.773 15.1692H125.034Z" fill="#347881"/>
<path d="M56.1828 37.2203H53.8272L52.5347 33.1741H48.0528L46.8219 37.2203H44.5278L48.9705 23.4385H51.7121L56.1828 37.2203ZM52.1486 31.4751L50.9792 27.876C50.8561 27.5071 50.6211 26.6409 50.2854 25.2772H50.2462C50.1119 25.8641 49.8881 26.7303 49.5915 27.876L48.4445 31.4751H52.1486ZM67.5863 32.129C67.5863 33.8168 67.1272 35.1525 66.2096 36.1361C65.3868 37.008 64.363 37.4439 63.1432 37.4439C61.8227 37.4439 60.8773 36.9744 60.3012 36.0355V41.2498H58.0908V30.5474C58.0908 29.4856 58.0631 28.3957 58.007 27.2836H59.9537L60.0774 28.8596H60.116C60.855 27.6748 61.9741 27.0768 63.4732 27.0768C64.6484 27.0768 65.6275 27.5407 66.4111 28.4684C67.1941 29.3961 67.5863 30.6201 67.5863 32.129ZM65.3367 32.2128C65.3367 31.246 65.1183 30.4468 64.6821 29.8209C64.2062 29.167 63.5631 28.8428 62.7571 28.8428C62.2148 28.8428 61.7165 29.0273 61.2743 29.3849C60.8327 29.7482 60.5413 30.2233 60.4074 30.8044C60.3459 31.0224 60.3121 31.2515 60.3066 31.4751V33.135C60.3066 33.8559 60.5305 34.465 60.9727 34.9681C61.4142 35.4655 61.991 35.7169 62.701 35.7169C63.5347 35.7169 64.1838 35.3928 64.6484 34.7557C65.1014 34.1074 65.3367 33.2635 65.3367 32.2128ZM79.0339 32.129C79.0339 33.8168 78.5754 35.1525 77.6572 36.1361C76.835 37.008 75.8112 37.4439 74.5914 37.4439C73.2709 37.4439 72.3249 36.9744 71.7488 36.0355V41.2498H69.5384V30.5474C69.5384 29.4856 69.5107 28.3957 69.4546 27.2836H71.4019L71.525 28.8596H71.5642C72.3026 27.6748 73.4217 27.0768 74.9214 27.0768C76.0966 27.0768 77.0757 27.5407 77.8587 28.4684C78.6369 29.3961 79.0339 30.6201 79.0339 32.129ZM76.7789 32.2128C76.7789 31.246 76.5611 30.4468 76.1243 29.8209C75.6489 29.167 75.0053 28.8428 74.1999 28.8428C73.657 28.8428 73.1587 29.0273 72.711 29.3849C72.2694 29.7482 71.9781 30.2233 71.8441 30.8044C71.7766 31.0783 71.738 31.3019 71.738 31.4751V33.135C71.738 33.8559 71.9618 34.465 72.4034 34.9681C72.8456 35.4655 73.4217 35.7169 74.1384 35.7169C74.9715 35.7169 75.6206 35.3928 76.0851 34.7557C76.5496 34.1074 76.7789 33.2635 76.7789 32.2128ZM91.8304 33.3585C91.8304 34.5322 91.422 35.4878 90.6051 36.2199C89.7099 37.0247 88.4509 37.4271 86.845 37.4271C85.3621 37.4271 84.1707 37.1421 83.2694 36.5664L83.7786 34.7278C84.7468 35.3034 85.8152 35.5884 86.9735 35.5884C87.8072 35.5884 88.4563 35.3984 88.9208 35.0239C89.3853 34.6495 89.62 34.1465 89.62 33.5206C89.62 32.9617 89.4245 32.4923 89.0439 32.1066C88.6632 31.7266 88.031 31.3689 87.1418 31.0448C84.7245 30.145 83.5155 28.8261 83.5155 27.0992C83.5155 25.9702 83.9408 25.0425 84.7969 24.3216C85.6475 23.6006 86.778 23.2374 88.1878 23.2374C89.4414 23.2374 90.4875 23.4553 91.3212 23.8912L90.7674 25.6908C89.9838 25.2661 89.1054 25.0593 88.1148 25.0593C87.3372 25.0593 86.7219 25.2493 86.2851 25.6293C85.9159 25.9702 85.7313 26.3838 85.7313 26.8756C85.7313 27.4177 85.9443 27.8704 86.3696 28.2225C86.7388 28.5467 87.4042 28.9043 88.3724 29.2844C89.5585 29.765 90.4314 30.3182 90.9912 30.961C91.5505 31.6037 91.8304 32.4028 91.8304 33.3585ZM99.1601 28.9434H96.7205V33.7665C96.7205 34.996 97.1512 35.6051 98.0133 35.6051C98.4102 35.6051 98.7348 35.5716 98.9978 35.5046L99.0593 37.1812C98.6232 37.3433 98.0525 37.4271 97.3418 37.4271C96.4689 37.4271 95.786 37.1588 95.2937 36.6279C94.8015 36.097 94.5553 35.2028 94.5553 33.9509V28.9434H93.1063V27.2892H94.5553V25.4673L96.7265 24.8134V27.2892H99.1655L99.1601 28.9434ZM110.132 32.1737C110.132 33.6994 109.696 34.9569 108.823 35.9349C107.911 36.9464 106.697 37.4495 105.181 37.4495C103.72 37.4495 102.556 36.9633 101.689 36.002C100.822 35.0351 100.391 33.8112 100.391 32.3414C100.391 30.7989 100.839 29.5414 101.734 28.5578C102.629 27.5742 103.832 27.088 105.348 27.088C106.809 27.088 107.984 27.5742 108.868 28.541C109.707 29.4744 110.132 30.6871 110.132 32.1737ZM107.839 32.224C107.839 31.3131 107.643 30.5306 107.245 29.8823C106.781 29.0943 106.121 28.6975 105.259 28.6975C104.375 28.6975 103.692 29.0943 103.233 29.8823C102.836 30.5362 102.64 31.3298 102.64 32.2687C102.64 33.1797 102.836 33.9621 103.233 34.616C103.709 35.4039 104.381 35.8008 105.242 35.8008C106.087 35.8008 106.747 35.3984 107.229 34.5992C107.637 33.923 107.839 33.135 107.839 32.224ZM117.323 29.2284C117.093 29.1893 116.858 29.167 116.623 29.167C115.845 29.167 115.247 29.4576 114.821 30.0444C114.452 30.5641 114.268 31.218 114.268 32.0061V37.2203H112.057V30.4133C112.057 29.3682 112.04 28.3286 111.996 27.2836H113.921L113.999 29.1837H114.06C114.295 28.5298 114.659 28.0045 115.168 27.6077C115.627 27.2612 116.192 27.0768 116.768 27.0768C116.976 27.0768 117.154 27.0936 117.323 27.1159V29.2284ZM127.21 31.7825C127.215 32.1178 127.187 32.4532 127.131 32.7829H120.495C120.518 33.7665 120.842 34.5154 121.457 35.0351C122.017 35.499 122.739 35.7281 123.629 35.7281C124.613 35.7281 125.508 35.5716 126.314 35.2587L126.661 36.79C125.721 37.1979 124.608 37.4047 123.326 37.4047C121.782 37.4047 120.573 36.952 119.689 36.0467C118.811 35.1413 118.369 33.923 118.369 32.3972C118.369 30.8995 118.777 29.6532 119.6 28.6584C120.456 27.5965 121.62 27.0656 123.08 27.0656C124.512 27.0656 125.598 27.5965 126.337 28.6584C126.913 29.5023 127.21 30.5418 127.21 31.7825ZM125.1 31.2124C125.117 30.5586 124.971 29.9941 124.669 29.5135C124.289 28.8987 123.696 28.5914 122.906 28.5914C122.185 28.5914 121.597 28.8931 121.144 29.4911C120.775 29.9662 120.557 30.5418 120.489 31.2069L125.1 31.2124Z" fill="#347881"/>
<rect x="1" y="1" width="178" height="50" rx="12" stroke="#347881"/>
</svg>
