<svg width="454" height="113" viewBox="0 0 454 113" fill="none" xmlns="http://www.w3.org/2000/svg">
<path fill-rule="evenodd" clip-rule="evenodd" d="M156.57 28.9676C153.875 29.8403 152.144 31.3933 150.982 33.981C150.102 35.9397 132.575 82.9647 132.575 83.3669C132.575 83.4795 134.684 83.5722 137.263 83.5722H141.95L144.059 77.5913L146.168 71.6104H159.759H173.35L175.458 77.5913L177.567 83.5722H182.537C186.307 83.5722 187.449 83.4217 187.268 82.9492C187.138 82.6068 182.945 71.3363 177.95 57.9044C172.823 44.117 168.317 32.7545 167.602 31.81C165.411 28.9177 160.573 27.6712 156.57 28.9676ZM290.731 28.7433C284.61 30.0322 280.173 34.8034 279.138 41.2079C278.837 43.0714 278.613 52.7574 278.611 64.0098L278.607 83.5722H283.068H287.529L287.678 62.2425C287.844 38.5803 287.74 39.3204 291.219 37.1987C293.153 36.0195 294.621 35.9711 296.819 37.0143C300.263 38.6486 300.26 38.6331 300.539 56.9076C300.786 73.0643 300.812 73.3982 301.998 75.7945C304.644 81.136 309.453 84.11 315.477 84.1289C320.547 84.1454 323.633 82.9761 326.687 79.8825C330.767 75.7497 330.943 74.8446 330.954 57.9044C330.959 49.9548 331.17 42.5535 331.424 41.4571C332.353 37.4295 336.727 35.2495 340.23 37.0676C343.919 38.9825 343.898 38.8335 343.898 62.5066V83.5722H348.403H352.909L352.764 61.5178C352.625 40.1627 352.586 39.3902 351.549 37.1464C350.169 34.1614 346.912 30.9193 343.972 29.6045C340.765 28.1696 334.594 28.1592 331.413 29.5826C326.466 31.796 323.366 35.8391 322.499 41.2079C322.212 42.9896 321.974 50.6381 321.972 58.2044C321.968 71.6992 321.946 71.9937 320.83 73.6549C320.115 74.7195 318.943 75.6096 317.674 76.0522C315.84 76.6912 315.479 76.6687 313.735 75.803C312.679 75.2787 311.352 74.2176 310.787 73.4446C309.81 72.1103 309.745 71.2107 309.508 55.7513C309.273 40.3516 309.2 39.3354 308.173 37.111C305.28 30.8496 297.79 27.2566 290.731 28.7433ZM183.693 30.3676C185.169 35.1154 200.375 78.1754 201.009 79.4011C204.172 85.5105 213.277 86.133 217.43 80.5235C218.129 79.58 235.745 30.392 235.745 29.3847C235.745 29.3085 233.632 29.2462 231.049 29.2462H226.354L218.714 52.2176C210.929 75.6246 210.225 77.2404 208.564 75.5219C208.206 75.1521 204.969 65.6545 201.368 54.4155C197.767 43.1765 194.479 32.9159 194.061 31.6136L193.3 29.2462H188.323C183.39 29.2462 183.349 29.2562 183.693 30.3676ZM240.23 33.2334V37.2206H245.214H250.198V56.4091V75.5977H245.214H240.23V79.585V83.5722H254.933H269.636V79.6024V75.6326L264.527 75.4905L259.419 75.3485V56.4091V37.4698L264.527 37.3278L269.636 37.1857V33.216V29.2462H254.933H240.23V33.2334ZM373.553 29.7137C368.864 30.8605 364.481 34.7007 362.81 39.1275C361.972 41.3469 361.789 42.7061 361.96 45.4443C362.202 49.3214 363.033 51.2836 365.667 54.1992L367.445 56.1659L365.468 58.3106C362.662 61.3543 361.684 64.2221 361.92 68.7142C362.242 74.8386 365.287 79.3961 370.812 82.0207C373.509 83.3021 373.755 83.3255 386.138 83.4785L398.722 83.6345V79.6159V75.5977H387.863C377.582 75.5977 376.887 75.5379 374.817 74.4763C369.762 71.8846 369.372 64.417 374.128 61.2955C375.3 60.5265 376.981 60.3605 385.74 60.1472L395.981 59.898L396.126 56.0797L396.271 52.2619L386.069 52.0925C376.645 51.9365 375.759 51.8438 374.461 50.8809C369.506 47.2071 369.683 40.9746 374.817 38.342C376.887 37.2804 377.582 37.2206 387.863 37.2206H398.722V33.2334V29.2462L386.885 29.297C380.375 29.3254 374.375 29.5128 373.553 29.7137ZM408.192 56.4091V83.5722L418.285 83.5548C424.727 83.5438 429.813 83.2816 432.347 82.8301C443.065 80.9207 451.113 73.2597 453.294 62.8884C456.667 46.8503 447.67 32.7181 432.347 29.9883C429.813 29.5368 424.727 29.2746 418.285 29.2636L408.192 29.2462V56.4091ZM161.422 37.108C161.952 38.0968 170.454 62.7434 170.454 63.2886C170.454 63.4795 165.632 63.636 159.738 63.636C153.845 63.636 149.022 63.5697 149.022 63.489C149.022 63.2024 158.538 37.0522 158.791 36.6415C159.25 35.8994 160.935 36.1984 161.422 37.108ZM431.308 37.9737C439.378 40.0755 444.259 46.1465 444.93 54.9139C445.652 64.3467 440.022 72.6292 431.388 74.8376C429.587 75.2986 426.201 75.5977 422.79 75.5977H417.163V56.4091V37.2206H422.79C426.202 37.2206 429.555 37.5172 431.308 37.9737Z" fill="white"/>
<path fill-rule="evenodd" clip-rule="evenodd" d="M31.3587 0.910353C26.8297 2.37466 24.3018 3.93416 20.8478 7.39505C12.9482 15.3117 11.2376 26.3264 16.286 36.7669C19.1014 42.5903 28.8273 50.8301 42.2114 58.7313C46.1109 61.0334 49.3012 63.0849 49.3012 63.2902C49.3012 63.495 47.6061 64.7196 45.5342 66.011C43.4624 67.3018 39.9516 69.736 37.7327 71.4201C35.5134 73.1043 33.3039 74.7764 32.822 75.1357C32.0749 75.6945 31.557 75.5853 29.2853 74.3916C26.8616 73.1187 26.1563 72.9931 21.3906 72.9901C14.1588 72.9851 12.0515 74.0039 5.13519 80.8449C-1.19653 87.1079 -1.27577 87.4652 2.73238 91.6678C5.66799 94.7454 7.31371 95.5324 8.96442 94.6487C11.2008 93.4521 11.1654 90.9351 8.8772 88.4147C7.96413 87.4089 7.99603 87.3521 11.3069 84.0751C15.2099 80.2125 17.4433 79.1314 21.4798 79.1509C28.134 79.1828 33.3692 84.5391 33.3413 91.287C33.3264 94.8775 31.9722 97.6033 28.3079 101.419L25.2383 104.616L23.5462 103.131C21.579 101.403 19.8072 101.235 18.4002 102.642C16.6099 104.432 17.1068 106 20.5598 109.453C22.6157 111.509 24.1184 112.61 24.8685 112.61C26.7833 112.61 36.0456 103.119 37.9924 99.1623C39.4458 96.2087 39.5813 95.5224 39.5733 91.1873C39.5654 87.0775 39.3825 86.0523 38.2027 83.5174C37.4536 81.908 36.8411 80.516 36.8411 80.4238C36.8411 79.416 54.8268 67.255 56.317 67.255C57.9055 67.255 71.5722 76.5711 76.8732 81.2676L78.7771 82.9547L77.382 85.9451C76.1963 88.487 75.988 89.571 75.9915 93.1719C75.9975 98.626 77.6078 102.454 81.4076 106.048C85.349 109.776 87.9547 110.789 93.6589 110.816C97.8495 110.835 98.7227 110.677 101.254 109.447C115.1 102.717 114.881 83.3723 100.886 76.8861C98.3518 75.7119 97.2484 75.5011 93.6589 75.5046C90.0694 75.5085 88.949 75.7253 86.3239 76.9255L83.2248 78.3415L80.6227 76.0015C77.2201 72.9428 70.9168 68.2643 66.6554 65.6342C64.7859 64.4809 63.2563 63.3884 63.2563 63.2065C63.2563 63.0245 63.6286 62.733 64.0837 62.5585C65.8944 61.8638 76.2497 55.4608 80.9496 52.13C90.9336 45.0544 96.8467 38.1405 98.624 31.4644C99.4533 28.3499 99.3138 21.1335 98.3628 17.9129C95.9122 9.61644 88.3743 2.3936 80.202 0.511133C76.8159 -0.268368 70.2783 -0.13679 67.2096 0.772794C63.7881 1.78754 61.5139 2.94533 58.6496 5.13181L56.3848 6.86077L53.7468 4.87864C49.0973 1.38483 44.6316 -0.0281375 38.3363 0.00326181C35.6898 0.0162203 33.0712 0.356629 31.3587 0.910353ZM46.8092 8.12372C48.3168 8.88179 50.7903 10.7219 52.3059 12.2126C55.9931 15.8385 57.0278 15.833 60.55 12.1673C62.1434 10.5086 64.3498 8.87182 66.0927 8.05544C68.669 6.84831 69.5646 6.69879 74.2212 6.70028C79.0118 6.70178 79.6976 6.82488 82.3282 8.15562C93.8278 13.973 96.3712 28.6096 87.5455 38.1844C83.0235 43.0897 74.3727 49.2749 62.5546 56.0514L56.6196 59.4545L54.0817 58.1248C49.2593 55.5983 38.1534 48.7725 34.6486 46.1813C26.1997 39.9338 22.3735 35.6974 20.8862 30.9436C17.843 21.2153 22.3171 11.5881 31.722 7.62781C34.224 6.57369 35.2143 6.43762 39.3331 6.58066C43.3124 6.71822 44.5055 6.96493 46.8092 8.12372ZM98.4291 82.8954C106.623 86.7107 107.404 97.4672 99.872 102.761C94.2769 106.694 86.0219 104.124 83.2044 97.5743C79.1399 88.1266 89.0806 78.5423 98.4291 82.8954ZM91.8442 89.4065C89.575 90.3938 88.7411 93.0877 90.0245 95.2852C91.2033 97.3037 93.455 98.0488 95.4646 97.0854C98.5701 95.5967 98.8597 91.4056 95.979 89.6487C94.1334 88.5233 93.9041 88.5099 91.8442 89.4065Z" fill="white"/>
</svg>
