<svg width="180" height="52" viewBox="0 0 180 52" fill="none" xmlns="http://www.w3.org/2000/svg">
<path d="M15.6698 40.2737C15.2233 40.0507 15 39.4931 15 38.9356C15 38.824 15 38.601 15 38.4895C15 30.2376 15 21.9855 15 13.845C15 13.399 15.1116 13.0645 15.2233 12.6184C15.335 12.3954 15.5582 12.1724 15.7815 11.9494C20.5822 16.7444 25.2713 21.5395 29.9603 26.3346C25.1597 30.795 20.4706 35.4787 15.6698 40.2737Z" fill="#347881"/>
<path d="M34.6493 21.428C33.3095 22.7661 31.8582 24.1043 30.5185 25.5539C26.0527 20.9819 21.4753 16.4098 17.0095 11.8378C17.0095 11.8378 17.0095 11.7263 17.1211 11.7263C22.9266 14.9602 28.7321 18.1941 34.6493 21.428Z" fill="#347881"/>
<path d="M17.0095 40.2737C21.4753 35.8131 26.0527 31.3527 30.5185 26.8921C31.7465 28.1187 33.0863 29.3454 34.5377 30.6835C28.7321 33.9175 22.9266 37.1513 17.1211 40.2737H17.0095Z" fill="#347881"/>
<path d="M35.3196 30.2375C33.8682 28.8994 32.5285 27.5612 31.0771 26.2231C32.5285 24.7734 33.9799 23.3237 35.4312 21.874C35.8778 22.097 36.3244 22.3201 36.7709 22.6546C37.8874 23.3237 39.1155 23.8812 40.2319 24.5503C40.5669 24.6618 40.7901 24.8849 41.0134 25.2194C41.46 25.7769 41.46 26.3346 41.0134 26.8921C40.7901 27.1151 40.5669 27.3382 40.2319 27.4497C38.6689 28.4533 36.9943 29.3454 35.3196 30.2375Z" fill="#347881"/>
<path d="M56.3821 14.6256C56.3821 15.5177 56.1589 16.2984 55.6007 16.8559C54.9307 17.525 54.1493 17.8595 53.1445 17.8595C52.1397 17.8595 51.3581 17.525 50.6883 16.8559C50.0184 16.1868 49.6835 15.4062 49.6835 14.4026C49.6835 13.399 50.0184 12.6184 50.6883 11.9493C51.3581 11.2802 52.1397 10.9457 53.1445 10.9457C53.591 10.9457 54.0376 11.0572 54.4842 11.2802C54.9307 11.5032 55.2657 11.7263 55.489 12.0608L54.9307 12.6184C54.4842 12.0608 53.9259 11.8378 53.1445 11.8378C52.4746 11.8378 51.8047 12.0608 51.3581 12.6184C50.7999 13.0644 50.5766 13.7336 50.5766 14.5141C50.5766 15.2947 50.7999 15.9638 51.3581 16.4099C51.9163 16.8559 52.4746 17.1904 53.1445 17.1904C53.9259 17.1904 54.4842 16.9674 55.0424 16.4099C55.3773 16.0753 55.6007 15.6292 55.6007 15.0717H53.1445V14.2911H56.3821C56.3821 14.2911 56.3821 14.4026 56.3821 14.6256Z" fill="#347881" stroke="#347881" stroke-width="0.158033" stroke-miterlimit="10"/>
<path d="M61.5183 11.8378H58.5039V13.9565H61.295V14.7372H58.5039V16.8559H61.5183V17.6365H57.6107V10.9457H61.5183V11.8378Z" fill="#347881" stroke="#347881" stroke-width="0.158033" stroke-miterlimit="10"/>
<path d="M65.2027 17.6365H64.3093V11.7263H62.4113V10.9457H67.1002V11.7263H65.2027V17.6365Z" fill="#347881" stroke="#347881" stroke-width="0.158033" stroke-miterlimit="10"/>
<path d="M70.3383 17.6365V10.9457H71.2309V17.6365H70.3383Z" fill="#347881" stroke="#347881" stroke-width="0.158033" stroke-miterlimit="10"/>
<path d="M75.0271 17.6365H74.1344V11.7263H72.2363V10.9457H76.8137V11.7263H74.9156V17.6365H75.0271Z" fill="#347881" stroke="#347881" stroke-width="0.158033" stroke-miterlimit="10"/>
<path d="M85.6333 16.8559C84.9636 17.525 84.1818 17.8595 83.177 17.8595C82.1722 17.8595 81.391 17.525 80.7207 16.8559C80.0511 16.1868 79.7159 15.4062 79.7159 14.4026C79.7159 13.399 80.0511 12.6184 80.7207 11.9493C81.391 11.2802 82.1722 10.9457 83.177 10.9457C84.1818 10.9457 84.9636 11.2802 85.6333 11.9493C86.3029 12.6184 86.6381 13.399 86.6381 14.4026C86.6381 15.2947 86.3029 16.1868 85.6333 16.8559ZM81.391 16.2984C81.8377 16.7444 82.5073 17.0789 83.177 17.0789C83.8473 17.0789 84.5169 16.8559 84.9636 16.2984C85.4102 15.8523 85.7448 15.1832 85.7448 14.4026C85.7448 13.622 85.5217 12.9529 84.9636 12.5069C84.5169 12.0608 83.8473 11.7263 83.177 11.7263C82.5073 11.7263 81.8377 11.9493 81.391 12.5069C80.9444 12.9529 80.6092 13.622 80.6092 14.4026C80.6092 15.0717 80.8329 15.7408 81.391 16.2984Z" fill="#347881" stroke="#347881" stroke-width="0.158033" stroke-miterlimit="10"/>
<path d="M87.8665 17.6365V10.9457H88.8712L92.1087 16.1868V14.8487V10.9457H93.002V17.6365H92.1087L88.6476 12.1724V13.5105V17.6365H87.8665Z" fill="#347881" stroke="#347881" stroke-width="0.158033" stroke-miterlimit="10"/>
<path d="M79.4923 27.4497C76.813 27.4497 74.6919 29.4569 74.6919 32.2448C74.6919 34.9211 76.813 37.0398 79.4923 37.0398C82.1715 37.0398 84.2933 35.0326 84.2933 32.2448C84.2933 29.4569 82.1715 27.4497 79.4923 27.4497ZM79.4923 35.0326C78.0408 35.0326 76.813 33.806 76.813 32.1333C76.813 30.4605 78.0408 29.2339 79.4923 29.2339C80.9437 29.2339 82.1715 30.349 82.1715 32.1333C82.1715 33.9175 80.9437 35.0326 79.4923 35.0326ZM69.1091 27.4497C66.4298 27.4497 64.3087 29.4569 64.3087 32.2448C64.3087 34.9211 66.4298 37.0398 69.1091 37.0398C71.789 37.0398 73.9101 35.0326 73.9101 32.2448C73.9101 29.4569 71.789 27.4497 69.1091 27.4497ZM69.1091 35.0326C67.6583 35.0326 66.4298 33.806 66.4298 32.1333C66.4298 30.4605 67.6583 29.2339 69.1091 29.2339C70.5605 29.2339 71.789 30.349 71.789 32.1333C71.789 33.9175 70.5605 35.0326 69.1091 35.0326ZM56.7168 28.8993V30.9066H61.5175C61.4059 32.0218 60.9593 32.9138 60.4011 33.4714C59.7312 34.1405 58.6147 34.9211 56.7168 34.9211C53.7024 34.9211 51.4695 32.5793 51.4695 29.5685C51.4695 26.5576 53.8141 24.2158 56.7168 24.2158C58.2799 24.2158 59.5079 24.8849 60.4011 25.6655L61.8525 24.2158C60.6244 23.1007 59.0613 22.2086 56.8285 22.2086C52.8093 22.2086 49.3483 25.554 49.3483 29.5685C49.3483 33.5829 52.8093 36.9283 56.8285 36.9283C59.0613 36.9283 60.6244 36.2593 61.9641 34.8096C63.3039 33.4714 63.7504 31.5757 63.7504 30.126C63.7504 29.68 63.7504 29.2339 63.6388 28.8993H56.7168ZM107.404 30.4605C106.957 29.3454 105.84 27.4497 103.385 27.4497C100.928 27.4497 98.9187 29.3454 98.9187 32.2448C98.9187 34.9211 100.928 37.0398 103.608 37.0398C105.729 37.0398 107.069 35.7017 107.515 34.9211L105.952 33.806C105.394 34.5865 104.724 35.1441 103.608 35.1441C102.491 35.1441 101.821 34.6981 101.263 33.6945L107.627 31.0181L107.404 30.4605ZM100.928 32.0218C100.928 30.2375 102.38 29.2339 103.385 29.2339C104.166 29.2339 104.947 29.68 105.17 30.2375L100.928 32.0218ZM95.6806 36.5938H97.8017V22.6546H95.6806V36.5938ZM92.3317 28.4533C91.7729 27.8957 90.8802 27.3382 89.7633 27.3382C87.4192 27.3382 85.1859 29.4569 85.1859 32.1333C85.1859 34.8096 87.3077 36.8168 89.7633 36.8168C90.8802 36.8168 91.7729 36.2593 92.2195 35.7017H92.3317V36.3708C92.3317 38.1549 91.3269 39.1586 89.7633 39.1586C88.5355 39.1586 87.6422 38.2665 87.4192 37.4859L85.6326 38.2665C86.1907 39.4931 87.5307 41.0543 89.8754 41.0543C92.3317 41.0543 94.3413 39.6046 94.3413 36.1478V27.6727H92.3317V28.4533ZM89.8754 35.0326C88.424 35.0326 87.1955 33.806 87.1955 32.1333C87.1955 30.4605 88.424 29.2339 89.8754 29.2339C91.3269 29.2339 92.4432 30.4605 92.4432 32.1333C92.4432 33.806 91.3269 35.0326 89.8754 35.0326ZM117.117 22.6546H112.093V36.5938H114.214V31.3527H117.117C119.461 31.3527 121.694 29.68 121.694 27.0037C121.694 24.3273 119.461 22.6546 117.117 22.6546ZM117.228 29.4569H114.214V24.6619H117.228C118.791 24.6619 119.684 26 119.684 27.0037C119.573 28.1188 118.68 29.4569 117.228 29.4569ZM130.068 27.4497C128.504 27.4497 126.941 28.1188 126.383 29.5685L128.281 30.349C128.728 29.5685 129.397 29.3454 130.179 29.3454C131.295 29.3454 132.3 30.0145 132.412 31.1297V31.2412C132.077 31.0181 131.184 30.6836 130.291 30.6836C128.281 30.6836 126.271 31.7987 126.271 33.806C126.271 35.7017 127.946 36.9283 129.732 36.9283C131.184 36.9283 131.853 36.2593 132.412 35.5902H132.523V36.7053H134.533V31.3527C134.31 28.7878 132.412 27.4497 130.068 27.4497ZM129.844 35.0326C129.174 35.0326 128.169 34.6981 128.169 33.806C128.169 32.6908 129.397 32.3563 130.402 32.3563C131.295 32.3563 131.742 32.5793 132.3 32.8023C132.077 34.1405 130.96 35.0326 129.844 35.0326ZM141.566 27.6727L139.222 33.6945H139.111L136.654 27.6727H134.421L138.106 36.1478L135.984 40.8313H138.106L143.8 27.6727H141.566ZM122.81 36.5938H124.931V22.6546H122.81V36.5938Z" fill="#347881"/>
<rect x="1" y="1" width="178" height="50" rx="12" stroke="#347881"/>
</svg>
