<svg width="40" height="40" viewBox="0 0 40 40" fill="none" xmlns="http://www.w3.org/2000/svg">
<g id="image 8 (traced)" clip-path="url(#clip0_77_289)">
<g id="Black">
<path id="Vector" d="M30.0781 0.148432C27.0547 0.820307 24.7734 2.95312 23.8516 5.97656C23.6563 6.64062 23.6406 6.76562 23.6406 8.20312C23.6406 9.63281 23.6563 9.77343 23.8516 10.4297C24.625 13 26.4609 14.9922 28.8984 15.9062C30.0156 16.3281 30.7031 16.4297 32.1016 16.3828C33.5547 16.3437 34.2656 16.1641 35.5078 15.5469C37.5703 14.5234 39.0313 12.75 39.7422 10.4297C39.9453 9.76562 39.9531 9.64062 39.9531 8.20312C39.9531 6.76562 39.9453 6.64062 39.7422 5.97656C39.0313 3.65624 37.5703 1.88281 35.5078 0.859369C34.2422 0.226557 33.5625 0.0624943 32.0313 0.0312443C30.9766 0.00780678 30.6172 0.0312443 30.0781 0.148432ZM32.9688 5.85937V7.03124H34.1406H35.3125V8.20312V9.37499H34.1406H32.9688V10.5469V11.7187H31.8359H30.7031V10.5469V9.37499H29.5313H28.3594V8.20312V7.03124H29.5313H30.7031V5.85937V4.68749H31.8359H32.9688V5.85937Z" fill="#347881"/>
<path id="Vector_2" d="M8.71094 4.96091C5.96875 5.46873 3.57812 7.12498 1.84375 9.72654C0.578125 11.625 0 13.4375 0 15.5312C0 17.789 0.492188 19.1953 2.11719 21.6094C3.5 23.664 3.61719 23.8515 3.99219 24.6406C4.66406 26.0547 4.75781 26.7734 4.76562 30.289C4.76562 31.9765 4.79688 32.8047 4.875 33.2187C5.19531 34.8984 6 36.4062 7.25781 37.664C8.28125 38.6875 9.32031 39.3125 10.7422 39.7344C11.3672 39.9219 11.5781 39.9453 12.6875 39.9531L13.9375 39.9609L14.9766 34.7656C15.5469 31.9062 16.0547 29.4687 16.1094 29.3437C16.6484 28.0234 18.5859 28.0234 19.125 29.3437C19.1797 29.4687 19.6875 31.9062 20.2578 34.7656L21.2969 39.9609L22.2656 39.9844C23.6953 40.0156 24.7812 39.7656 26.0156 39.1328C27.9531 38.1328 29.5625 36.1406 30.1797 33.9844C30.4453 33.0469 30.4844 32.5547 30.5391 29.4922L30.6016 26.3672L30.8125 25.7031C31.1406 24.7109 31.5312 24 32.7188 22.2109C33.3203 21.3203 33.9297 20.3594 34.0859 20.0781C34.3984 19.5078 34.875 18.3672 34.8203 18.3047C34.7969 18.289 34.5781 18.3281 34.3281 18.3906C33.0938 18.7109 31.3047 18.7812 30.0547 18.5547C26.2266 17.8828 23.0781 15.164 21.8359 11.4609C21.4141 10.1875 21.3047 9.39841 21.3516 7.85154C21.3828 6.8906 21.4375 6.35154 21.5469 5.89841C21.6328 5.55466 21.6953 5.2656 21.6875 5.24998C21.6719 5.24216 21.4062 5.32029 21.0859 5.43748C20.2031 5.74998 19.0938 6.35935 18.3203 6.9531L17.6172 7.49216L17.3828 7.29685C16.0312 6.2031 14.6797 5.5156 13.0859 5.10154C12.4141 4.92966 12.1016 4.89841 10.8203 4.87498C9.74219 4.85935 9.16406 4.88279 8.71094 4.96091Z" fill="#347881"/>
</g>
</g>
<defs>
<clipPath id="clip0_77_289">
<rect width="40" height="40" fill="white"/>
</clipPath>
</defs>
</svg>
