<svg width="1104" height="228" viewBox="0 0 1104 228" fill="none" xmlns="http://www.w3.org/2000/svg">
<g clip-path="url(#clip0_23_335)">
<rect width="1104" height="228" rx="20" fill="white"/>
<mask id="path-2-inside-1_23_335" fill="white">
<path d="M0 0H1104V48H0V0Z"/>
</mask>
<path d="M0 0H1104V48H0V0Z" fill="#E7F9F7" fill-opacity="0.1"/>
<path d="M56.3608 28.5V19.7727H57.9418V23.4673H61.9858V19.7727H63.571V28.5H61.9858V24.7926H57.9418V28.5H56.3608ZM67.1058 28.6321C66.6911 28.6321 66.3175 28.5582 65.9851 28.4105C65.6555 28.2599 65.3942 28.0384 65.201 27.7457C65.0107 27.4531 64.9155 27.0923 64.9155 26.6634C64.9155 26.294 64.9837 25.9886 65.12 25.7472C65.2564 25.5057 65.4425 25.3125 65.6783 25.1676C65.9141 25.0227 66.1797 24.9134 66.4751 24.8395C66.7734 24.7628 67.0817 24.7074 67.3999 24.6733C67.7834 24.6335 68.0945 24.598 68.3331 24.5668C68.5717 24.5327 68.745 24.4815 68.853 24.4134C68.9638 24.3423 69.0192 24.233 69.0192 24.0852V24.0597C69.0192 23.7386 68.924 23.4901 68.7337 23.3139C68.5433 23.1378 68.2692 23.0497 67.9112 23.0497C67.5334 23.0497 67.2337 23.1321 67.0121 23.2969C66.7933 23.4616 66.6456 23.6562 66.5689 23.8807L65.1286 23.6761C65.2422 23.2784 65.4297 22.946 65.6911 22.679C65.9524 22.4091 66.272 22.2074 66.6499 22.0739C67.0277 21.9375 67.4453 21.8693 67.9027 21.8693C68.218 21.8693 68.532 21.9062 68.8445 21.9801C69.157 22.054 69.4425 22.1761 69.701 22.3466C69.9595 22.5142 70.1669 22.7429 70.3232 23.0327C70.4822 23.3224 70.5618 23.6847 70.5618 24.1193V28.5H69.0788V27.6009H69.0277C68.9339 27.7827 68.8018 27.9531 68.6314 28.1122C68.4638 28.2685 68.2521 28.3949 67.9964 28.4915C67.7436 28.5852 67.4467 28.6321 67.1058 28.6321ZM67.5064 27.4986C67.8161 27.4986 68.0845 27.4375 68.3118 27.3153C68.5391 27.1903 68.7138 27.0256 68.8359 26.821C68.9609 26.6165 69.0234 26.3935 69.0234 26.152V25.3807C68.9751 25.4205 68.8928 25.4574 68.7763 25.4915C68.6626 25.5256 68.5348 25.5554 68.3928 25.581C68.2507 25.6065 68.1101 25.6293 67.9709 25.6491C67.8317 25.669 67.7109 25.6861 67.6087 25.7003C67.3786 25.7315 67.1726 25.7827 66.9908 25.8537C66.8089 25.9247 66.6655 26.0241 66.5604 26.152C66.4553 26.277 66.4027 26.4389 66.4027 26.6378C66.4027 26.9219 66.5064 27.1364 66.7138 27.2812C66.9212 27.4261 67.1854 27.4986 67.5064 27.4986ZM71.7507 26.706H73.2805C73.2947 26.9503 73.4041 27.1392 73.6087 27.2727C73.8132 27.4062 74.0788 27.473 74.4055 27.473C74.7379 27.473 75.0178 27.4006 75.245 27.2557C75.4751 27.108 75.5902 26.8849 75.5902 26.5866C75.5902 26.4105 75.5462 26.2557 75.4581 26.1222C75.37 25.9858 75.2464 25.8807 75.0874 25.8068C74.9283 25.733 74.7408 25.696 74.5249 25.696H73.5234V24.6009H74.5249C74.8459 24.6009 75.0888 24.527 75.2536 24.3793C75.4212 24.2315 75.505 24.0455 75.505 23.821C75.505 23.5795 75.4169 23.3835 75.2408 23.233C75.0675 23.0824 74.8274 23.0071 74.5206 23.0071C74.2138 23.0071 73.9581 23.0767 73.7536 23.2159C73.5518 23.3551 73.4467 23.5341 73.4382 23.7528H71.9169C71.9226 23.3722 72.0362 23.0412 72.2578 22.7599C72.4822 22.4787 72.7834 22.2599 73.1612 22.1037C73.5419 21.9474 73.9709 21.8693 74.4482 21.8693C74.9595 21.8693 75.4013 21.946 75.7734 22.0994C76.1456 22.2528 76.4325 22.4673 76.6342 22.7429C76.8359 23.0156 76.9368 23.3366 76.9368 23.706C76.9368 24.0611 76.826 24.3551 76.6044 24.5881C76.3828 24.8182 76.0845 24.983 75.7095 25.0824V25.1506C75.968 25.1648 76.201 25.2386 76.4084 25.3722C76.6158 25.5028 76.7805 25.6804 76.9027 25.9048C77.0249 26.1293 77.0859 26.3892 77.0859 26.6847C77.0859 27.0852 76.9709 27.4318 76.7408 27.7244C76.5107 28.0142 76.1939 28.2372 75.7905 28.3935C75.3899 28.5497 74.9311 28.6278 74.4141 28.6278C73.9112 28.6278 73.4609 28.5526 73.0632 28.402C72.6683 28.2486 72.3544 28.0284 72.1214 27.7415C71.8885 27.4545 71.7649 27.1094 71.7507 26.706ZM78.3004 28.5V21.9545H81.049C81.8246 21.9545 82.4368 22.1094 82.8857 22.419C83.3374 22.7287 83.5632 23.1605 83.5632 23.7145C83.5632 24.081 83.4354 24.3807 83.1797 24.6136C82.9268 24.8437 82.5817 24.9986 82.1442 25.0781C82.4879 25.1065 82.7891 25.1932 83.0476 25.3381C83.3089 25.483 83.5135 25.6733 83.6612 25.9091C83.8089 26.1449 83.8828 26.4162 83.8828 26.723C83.8828 27.0838 83.7876 27.3977 83.5973 27.6648C83.4098 27.929 83.1357 28.1349 82.7749 28.2827C82.4169 28.4276 81.9822 28.5 81.4709 28.5H78.3004ZM79.745 27.2855H81.4709C81.755 27.2855 81.978 27.2187 82.1399 27.0852C82.3018 26.9489 82.3828 26.7642 82.3828 26.5312C82.3828 26.2614 82.3018 26.0497 82.1399 25.8963C81.978 25.7401 81.755 25.6619 81.4709 25.6619H79.745V27.2855ZM79.745 24.6648H81.0788C81.2891 24.6648 81.4695 24.6349 81.62 24.5753C81.7706 24.5128 81.8857 24.4261 81.9652 24.3153C82.0447 24.2017 82.0845 24.0668 82.0845 23.9105C82.0845 23.6861 81.9922 23.5099 81.8075 23.3821C81.6257 23.2543 81.3729 23.1903 81.049 23.1903H79.745V24.6648ZM87.0394 28.6321C86.6246 28.6321 86.2511 28.5582 85.9187 28.4105C85.5891 28.2599 85.3278 28.0384 85.1346 27.7457C84.9442 27.4531 84.8491 27.0923 84.8491 26.6634C84.8491 26.294 84.9173 25.9886 85.0536 25.7472C85.19 25.5057 85.3761 25.3125 85.6119 25.1676C85.8477 25.0227 86.1133 24.9134 86.4087 24.8395C86.707 24.7628 87.0153 24.7074 87.3335 24.6733C87.717 24.6335 88.0281 24.598 88.2667 24.5668C88.5053 24.5327 88.6786 24.4815 88.7866 24.4134C88.8974 24.3423 88.9528 24.233 88.9528 24.0852V24.0597C88.9528 23.7386 88.8576 23.4901 88.6673 23.3139C88.4769 23.1378 88.2028 23.0497 87.8448 23.0497C87.467 23.0497 87.1673 23.1321 86.9457 23.2969C86.7269 23.4616 86.5792 23.6562 86.5025 23.8807L85.0621 23.6761C85.1758 23.2784 85.3633 22.946 85.6246 22.679C85.886 22.4091 86.2056 22.2074 86.5835 22.0739C86.9613 21.9375 87.3789 21.8693 87.8363 21.8693C88.1516 21.8693 88.4656 21.9062 88.7781 21.9801C89.0906 22.054 89.3761 22.1761 89.6346 22.3466C89.8931 22.5142 90.1005 22.7429 90.2567 23.0327C90.4158 23.3224 90.4954 23.6847 90.4954 24.1193V28.5H89.0124V27.6009H88.9613C88.8675 27.7827 88.7354 27.9531 88.565 28.1122C88.3974 28.2685 88.1857 28.3949 87.93 28.4915C87.6772 28.5852 87.3803 28.6321 87.0394 28.6321ZM87.44 27.4986C87.7496 27.4986 88.0181 27.4375 88.2454 27.3153C88.4727 27.1903 88.6474 27.0256 88.7695 26.821C88.8945 26.6165 88.957 26.3935 88.957 26.152V25.3807C88.9087 25.4205 88.8263 25.4574 88.7099 25.4915C88.5962 25.5256 88.4684 25.5554 88.3263 25.581C88.1843 25.6065 88.0437 25.6293 87.9045 25.6491C87.7653 25.669 87.6445 25.6861 87.5423 25.7003C87.3121 25.7315 87.1062 25.7827 86.9244 25.8537C86.7425 25.9247 86.5991 26.0241 86.494 26.152C86.3888 26.277 86.3363 26.4389 86.3363 26.6378C86.3363 26.9219 86.44 27.1364 86.6474 27.2812C86.8548 27.4261 87.119 27.4986 87.44 27.4986ZM96.5423 24.5881V25.8537H93.0565V24.5881H96.5423ZM93.5337 21.9545V28.5H92.0465V21.9545H93.5337ZM97.5522 21.9545V28.5H96.0692V21.9545H97.5522ZM100.6 26.4119L103.221 21.9545H104.806V28.5H103.315V24.0384L100.702 28.5H99.1129V21.9545H100.6V26.4119ZM109.288 28.6278C108.632 28.6278 108.065 28.4915 107.588 28.2188C107.113 27.9432 106.748 27.554 106.493 27.0511C106.237 26.5455 106.109 25.9503 106.109 25.2656C106.109 24.5923 106.237 24.0014 106.493 23.4929C106.751 22.9815 107.112 22.5838 107.575 22.2997C108.038 22.0128 108.582 21.8693 109.207 21.8693C109.61 21.8693 109.991 21.9347 110.349 22.0653C110.71 22.1932 111.028 22.392 111.304 22.6619C111.582 22.9318 111.801 23.2756 111.96 23.6932C112.119 24.108 112.199 24.6023 112.199 25.1761V25.6491H106.833V24.6094H110.72C110.717 24.3139 110.653 24.0511 110.528 23.821C110.403 23.5881 110.228 23.4048 110.004 23.2713C109.782 23.1378 109.524 23.071 109.228 23.071C108.913 23.071 108.636 23.1477 108.397 23.3011C108.159 23.4517 107.973 23.6506 107.839 23.8977C107.708 24.142 107.642 24.4105 107.639 24.7031V25.6108C107.639 25.9915 107.708 26.3182 107.848 26.5909C107.987 26.8608 108.181 27.0682 108.431 27.2131C108.681 27.3551 108.974 27.4261 109.309 27.4261C109.534 27.4261 109.737 27.3949 109.919 27.3324C110.1 27.267 110.258 27.1719 110.392 27.0469C110.525 26.9219 110.626 26.767 110.694 26.5824L112.135 26.7443C112.044 27.125 111.87 27.4574 111.615 27.7415C111.362 28.0227 111.038 28.2415 110.643 28.3977C110.248 28.5511 109.797 28.6278 109.288 28.6278ZM116.48 28.5V21.9545H118.023V24.5966H118.585L120.554 21.9545H122.412L119.987 25.1676L122.438 28.5H120.571L118.777 26.0327H118.023V28.5H116.48ZM122.86 28.5L122.852 27.2301H123.078C123.248 27.2301 123.392 27.1918 123.508 27.1151C123.625 27.0384 123.721 26.9105 123.798 26.7315C123.875 26.5497 123.934 26.3054 123.977 25.9986C124.02 25.6918 124.049 25.3097 124.066 24.8523L124.181 21.9545H128.954V28.5H127.463V23.2202H125.583L125.481 25.3295C125.456 25.875 125.395 26.348 125.298 26.7486C125.204 27.1463 125.071 27.4744 124.897 27.733C124.727 27.9915 124.512 28.1847 124.254 28.3125C123.995 28.4375 123.69 28.5 123.338 28.5H122.86ZM131.995 26.4119L134.615 21.9545H136.201V28.5H134.709V24.0384L132.097 28.5H130.507V21.9545H131.995V26.4119ZM142.281 24.5881V25.8537H138.795V24.5881H142.281ZM139.272 21.9545V28.5H137.785V21.9545H139.272ZM143.29 21.9545V28.5H141.808V21.9545H143.29ZM146.338 26.4119L148.959 21.9545H150.544V28.5H149.053V24.0384L146.441 28.5H144.851V21.9545H146.338V26.4119ZM152.129 28.5V21.9545H153.671V24.5966H154.234L156.202 21.9545H158.06L155.636 25.1676L158.086 28.5H156.219L154.425 26.0327H153.671V28.5H152.129ZM160.448 26.4119L163.069 21.9545H164.654V28.5H163.162V24.0384L160.55 28.5H158.961V21.9545H160.448V26.4119Z" fill="#9599A7"/>
<path d="M258.361 28.5V19.7727H261.702C262.332 19.7727 262.857 19.8722 263.274 20.071C263.695 20.267 264.009 20.5355 264.216 20.8764C264.426 21.2173 264.531 21.6037 264.531 22.0355C264.531 22.3906 264.463 22.6946 264.327 22.9474C264.19 23.1974 264.007 23.4006 263.777 23.5568C263.547 23.7131 263.29 23.8253 263.006 23.8935V23.9787C263.315 23.9957 263.612 24.0909 263.896 24.2642C264.183 24.4347 264.418 24.6761 264.599 24.9886C264.781 25.3011 264.872 25.679 264.872 26.1222C264.872 26.5739 264.763 26.9801 264.544 27.3409C264.325 27.6989 263.996 27.9815 263.555 28.1889C263.115 28.3963 262.561 28.5 261.893 28.5H258.361ZM259.942 27.179H261.642C262.216 27.179 262.629 27.0696 262.882 26.8509C263.138 26.6293 263.266 26.3452 263.266 25.9986C263.266 25.7401 263.202 25.5071 263.074 25.2997C262.946 25.0895 262.764 24.9247 262.528 24.8054C262.293 24.6832 262.011 24.6222 261.685 24.6222H259.942V27.179ZM259.942 23.4844H261.506C261.778 23.4844 262.024 23.4347 262.243 23.3352C262.462 23.233 262.634 23.0895 262.759 22.9048C262.886 22.7173 262.95 22.4957 262.95 22.2401C262.95 21.902 262.831 21.6236 262.592 21.4048C262.357 21.1861 262.006 21.0767 261.54 21.0767H259.942V23.4844ZM266.179 30.9545V21.9545H267.696V23.0369H267.786C267.865 22.8778 267.978 22.7088 268.123 22.5298C268.267 22.348 268.463 22.1932 268.711 22.0653C268.958 21.9347 269.273 21.8693 269.657 21.8693C270.162 21.8693 270.618 21.9986 271.025 22.2571C271.434 22.5128 271.757 22.892 271.996 23.3949C272.238 23.8949 272.358 24.5085 272.358 25.2358C272.358 25.9545 272.24 26.5653 272.005 27.0682C271.769 27.571 271.448 27.9545 271.042 28.2188C270.635 28.483 270.175 28.6151 269.661 28.6151C269.286 28.6151 268.975 28.5526 268.728 28.4276C268.48 28.3026 268.282 28.152 268.131 27.9759C267.983 27.7969 267.868 27.6278 267.786 27.4688H267.722V30.9545H266.179ZM267.692 25.2273C267.692 25.6506 267.752 26.0213 267.871 26.3395C267.993 26.6577 268.168 26.9062 268.395 27.0852C268.625 27.2614 268.904 27.3494 269.23 27.3494C269.571 27.3494 269.857 27.2585 270.087 27.0767C270.317 26.892 270.49 26.6406 270.607 26.3224C270.726 26.0014 270.786 25.6364 270.786 25.2273C270.786 24.821 270.728 24.4602 270.611 24.1449C270.495 23.8295 270.321 23.5824 270.091 23.4034C269.861 23.2244 269.574 23.1349 269.23 23.1349C268.901 23.1349 268.621 23.2216 268.391 23.3949C268.161 23.5682 267.986 23.8111 267.867 24.1236C267.75 24.4361 267.692 24.804 267.692 25.2273ZM276.577 28.6278C275.921 28.6278 275.354 28.4915 274.877 28.2188C274.402 27.9432 274.037 27.554 273.782 27.0511C273.526 26.5455 273.398 25.9503 273.398 25.2656C273.398 24.5923 273.526 24.0014 273.782 23.4929C274.04 22.9815 274.401 22.5838 274.864 22.2997C275.327 22.0128 275.871 21.8693 276.496 21.8693C276.9 21.8693 277.28 21.9347 277.638 22.0653C277.999 22.1932 278.317 22.392 278.593 22.6619C278.871 22.9318 279.09 23.2756 279.249 23.6932C279.408 24.108 279.488 24.6023 279.488 25.1761V25.6491H274.123V24.6094H278.009C278.006 24.3139 277.942 24.0511 277.817 23.821C277.692 23.5881 277.517 23.4048 277.293 23.2713C277.071 23.1378 276.813 23.071 276.517 23.071C276.202 23.071 275.925 23.1477 275.686 23.3011C275.448 23.4517 275.262 23.6506 275.128 23.8977C274.998 24.142 274.931 24.4105 274.928 24.7031V25.6108C274.928 25.9915 274.998 26.3182 275.137 26.5909C275.276 26.8608 275.471 27.0682 275.721 27.2131C275.971 27.3551 276.263 27.4261 276.598 27.4261C276.823 27.4261 277.026 27.3949 277.208 27.3324C277.39 27.267 277.547 27.1719 277.681 27.0469C277.814 26.9219 277.915 26.767 277.983 26.5824L279.424 26.7443C279.333 27.125 279.159 27.4574 278.904 27.7415C278.651 28.0227 278.327 28.2415 277.932 28.3977C277.537 28.5511 277.086 28.6278 276.577 28.6278ZM284.56 26.706L286.503 21.9545H287.747L285.101 28.5H284.023L281.436 21.9545H282.668L284.56 26.706ZM282.28 21.9545V28.5H280.793V21.9545H282.28ZM286.903 28.5V21.9545H288.378V28.5H286.903ZM293.803 28.5V23.2074H292.405C292.05 23.2074 291.777 23.2898 291.587 23.4545C291.396 23.6193 291.303 23.8239 291.305 24.0682C291.303 24.3125 291.392 24.5142 291.574 24.6733C291.756 24.8324 292.016 24.9119 292.354 24.9119H294.288V26.0369H292.354C291.831 26.0369 291.379 25.9545 290.999 25.7898C290.618 25.625 290.325 25.392 290.121 25.0909C289.916 24.7898 289.814 24.4375 289.814 24.0341C289.814 23.6136 289.918 23.2486 290.125 22.9389C290.335 22.6264 290.634 22.3849 291.02 22.2145C291.409 22.0412 291.871 21.9545 292.405 21.9545H295.247V28.5H293.803ZM289.575 28.5L291.403 25.142H292.925L291.092 28.5H289.575ZM299.777 30.9545V21.9545H301.294V23.0369H301.384C301.463 22.8778 301.575 22.7088 301.72 22.5298C301.865 22.348 302.061 22.1932 302.308 22.0653C302.555 21.9347 302.871 21.8693 303.254 21.8693C303.76 21.8693 304.216 21.9986 304.622 22.2571C305.031 22.5128 305.355 22.892 305.594 23.3949C305.835 23.8949 305.956 24.5085 305.956 25.2358C305.956 25.9545 305.838 26.5653 305.602 27.0682C305.366 27.571 305.045 27.9545 304.639 28.2188C304.233 28.483 303.773 28.6151 303.259 28.6151C302.884 28.6151 302.572 28.5526 302.325 28.4276C302.078 28.3026 301.879 28.152 301.729 27.9759C301.581 27.7969 301.466 27.6278 301.384 27.4688H301.32V30.9545H299.777ZM301.29 25.2273C301.29 25.6506 301.349 26.0213 301.469 26.3395C301.591 26.6577 301.766 26.9062 301.993 27.0852C302.223 27.2614 302.501 27.3494 302.828 27.3494C303.169 27.3494 303.455 27.2585 303.685 27.0767C303.915 26.892 304.088 26.6406 304.205 26.3224C304.324 26.0014 304.384 25.6364 304.384 25.2273C304.384 24.821 304.325 24.4602 304.209 24.1449C304.092 23.8295 303.919 23.5824 303.689 23.4034C303.459 23.2244 303.172 23.1349 302.828 23.1349C302.499 23.1349 302.219 23.2216 301.989 23.3949C301.759 23.5682 301.584 23.8111 301.464 24.1236C301.348 24.4361 301.29 24.804 301.29 25.2273ZM309.161 28.6321C308.746 28.6321 308.372 28.5582 308.04 28.4105C307.71 28.2599 307.449 28.0384 307.256 27.7457C307.065 27.4531 306.97 27.0923 306.97 26.6634C306.97 26.294 307.038 25.9886 307.175 25.7472C307.311 25.5057 307.497 25.3125 307.733 25.1676C307.969 25.0227 308.234 24.9134 308.53 24.8395C308.828 24.7628 309.136 24.7074 309.455 24.6733C309.838 24.6335 310.149 24.598 310.388 24.5668C310.626 24.5327 310.8 24.4815 310.908 24.4134C311.018 24.3423 311.074 24.233 311.074 24.0852V24.0597C311.074 23.7386 310.979 23.4901 310.788 23.3139C310.598 23.1378 310.324 23.0497 309.966 23.0497C309.588 23.0497 309.288 23.1321 309.067 23.2969C308.848 23.4616 308.7 23.6562 308.624 23.8807L307.183 23.6761C307.297 23.2784 307.484 22.946 307.746 22.679C308.007 22.4091 308.327 22.2074 308.705 22.0739C309.082 21.9375 309.5 21.8693 309.957 21.8693C310.273 21.8693 310.587 21.9062 310.899 21.9801C311.212 22.054 311.497 22.1761 311.756 22.3466C312.014 22.5142 312.222 22.7429 312.378 23.0327C312.537 23.3224 312.616 23.6847 312.616 24.1193V28.5H311.134V27.6009H311.082C310.989 27.7827 310.857 27.9531 310.686 28.1122C310.518 28.2685 310.307 28.3949 310.051 28.4915C309.798 28.5852 309.501 28.6321 309.161 28.6321ZM309.561 27.4986C309.871 27.4986 310.139 27.4375 310.366 27.3153C310.594 27.1903 310.768 27.0256 310.891 26.821C311.016 26.6165 311.078 26.3935 311.078 26.152V25.3807C311.03 25.4205 310.947 25.4574 310.831 25.4915C310.717 25.5256 310.589 25.5554 310.447 25.581C310.305 25.6065 310.165 25.6293 310.026 25.6491C309.886 25.669 309.766 25.6861 309.663 25.7003C309.433 25.7315 309.227 25.7827 309.045 25.8537C308.864 25.9247 308.72 26.0241 308.615 26.152C308.51 26.277 308.457 26.4389 308.457 26.6378C308.457 26.9219 308.561 27.1364 308.768 27.2812C308.976 27.4261 309.24 27.4986 309.561 27.4986ZM319.413 19.5341L319.95 20.5312C319.76 20.696 319.547 20.8153 319.311 20.8892C319.075 20.9631 318.798 21.0114 318.48 21.0341C318.165 21.054 317.79 21.0682 317.355 21.0767C316.866 21.0881 316.467 21.1804 316.158 21.3537C315.848 21.527 315.611 21.7898 315.446 22.142C315.281 22.4915 315.173 22.9375 315.122 23.4801H315.195C315.399 23.0795 315.686 22.7741 316.055 22.5639C316.425 22.3537 316.858 22.2486 317.355 22.2486C317.898 22.2486 318.376 22.3707 318.791 22.6151C319.209 22.8565 319.534 23.2074 319.767 23.6676C320.003 24.1278 320.121 24.6847 320.121 25.3381C320.121 26.0114 319.994 26.5952 319.741 27.0895C319.489 27.581 319.129 27.9602 318.663 28.2273C318.2 28.4943 317.651 28.6278 317.014 28.6278C316.381 28.6278 315.83 28.4901 315.361 28.2145C314.895 27.9361 314.534 27.5256 314.278 26.983C314.026 26.4375 313.899 25.7656 313.899 24.9673V24.3793C313.899 22.8395 314.186 21.6903 314.76 20.9318C315.334 20.1733 316.185 19.7869 317.312 19.7727C317.648 19.767 317.947 19.7656 318.212 19.7685C318.479 19.7713 318.712 19.7585 318.911 19.7301C319.109 19.7017 319.277 19.6364 319.413 19.5341ZM317.023 27.392C317.338 27.392 317.611 27.3111 317.841 27.1491C318.071 26.9844 318.247 26.7514 318.369 26.4503C318.494 26.1491 318.557 25.7926 318.557 25.3807C318.557 24.9744 318.494 24.6293 318.369 24.3452C318.244 24.0582 318.067 23.8395 317.837 23.6889C317.607 23.5384 317.332 23.4631 317.014 23.4631C316.776 23.4631 316.561 23.5057 316.371 23.5909C316.18 23.6761 316.018 23.8011 315.885 23.9659C315.751 24.1307 315.649 24.331 315.578 24.5668C315.507 24.8026 315.469 25.0739 315.463 25.3807C315.463 25.9972 315.602 26.4872 315.881 26.8509C316.159 27.2116 316.54 27.392 317.023 27.392ZM324.288 28.6278C323.649 28.6278 323.095 28.4872 322.626 28.206C322.158 27.9247 321.794 27.5312 321.536 27.0256C321.28 26.5199 321.152 25.929 321.152 25.2528C321.152 24.5767 321.28 23.9844 321.536 23.4759C321.794 22.9673 322.158 22.5724 322.626 22.2912C323.095 22.0099 323.649 21.8693 324.288 21.8693C324.928 21.8693 325.482 22.0099 325.95 22.2912C326.419 22.5724 326.781 22.9673 327.037 23.4759C327.295 23.9844 327.425 24.5767 327.425 25.2528C327.425 25.929 327.295 26.5199 327.037 27.0256C326.781 27.5312 326.419 27.9247 325.95 28.206C325.482 28.4872 324.928 28.6278 324.288 28.6278ZM324.297 27.392C324.643 27.392 324.933 27.2969 325.166 27.1065C325.399 26.9134 325.572 26.6548 325.686 26.331C325.803 26.0071 325.861 25.6463 325.861 25.2486C325.861 24.848 325.803 24.4858 325.686 24.1619C325.572 23.8352 325.399 23.5753 325.166 23.3821C324.933 23.1889 324.643 23.0923 324.297 23.0923C323.942 23.0923 323.646 23.1889 323.411 23.3821C323.178 23.5753 323.003 23.8352 322.886 24.1619C322.773 24.4858 322.716 24.848 322.716 25.2486C322.716 25.6463 322.773 26.0071 322.886 26.331C323.003 26.6548 323.178 26.9134 323.411 27.1065C323.646 27.2969 323.942 27.392 324.297 27.392ZM328.013 23.2202V21.9545H333.74V23.2202H331.622V28.5H330.131V23.2202H328.013ZM336.012 24.0852H337.943C338.778 24.0852 339.424 24.2884 339.882 24.6946C340.339 25.1009 340.569 25.6335 340.572 26.2926C340.569 26.7216 340.464 27.1023 340.257 27.4347C340.052 27.767 339.754 28.0284 339.362 28.2188C338.973 28.4062 338.5 28.5 337.943 28.5H334.968V21.9545H336.456V27.2344H337.943C338.278 27.2344 338.554 27.1491 338.77 26.9787C338.985 26.8054 339.093 26.5838 339.093 26.3139C339.093 26.0298 338.985 25.7983 338.77 25.6193C338.554 25.4403 338.278 25.3509 337.943 25.3509H336.012V24.0852ZM341.386 28.5V21.9545H342.929V28.5H341.386Z" fill="#9599A7"/>
<path d="M222 48V0H220V48H222Z" fill="#E2E8F0" mask="url(#path-5-inside-2_23_335)"/>
<path d="M463.482 28.5H461.794L464.866 19.7727H466.818L469.895 28.5H468.207L465.876 21.5625H465.808L463.482 28.5ZM463.537 25.0781H468.139V26.348H463.537V25.0781ZM470.397 30.4006V27.2301H470.917C471.056 27.1222 471.172 26.9759 471.266 26.7912C471.36 26.6037 471.436 26.3835 471.496 26.1307C471.559 25.875 471.61 25.5895 471.65 25.2741C471.689 24.956 471.725 24.6136 471.756 24.2472L471.944 21.9545H476.674V27.2301H477.688V30.4006H476.196V28.5H471.914V30.4006H470.397ZM472.502 27.2301H475.199V23.1989H473.282L473.179 24.2472C473.123 24.9403 473.047 25.5341 472.953 26.0284C472.86 26.5227 472.709 26.9233 472.502 27.2301ZM478.839 30.9545V21.9545H480.357V23.0369H480.446C480.526 22.8778 480.638 22.7088 480.783 22.5298C480.928 22.348 481.124 22.1932 481.371 22.0653C481.618 21.9347 481.933 21.8693 482.317 21.8693C482.822 21.8693 483.278 21.9986 483.685 22.2571C484.094 22.5128 484.418 22.892 484.656 23.3949C484.898 23.8949 485.018 24.5085 485.018 25.2358C485.018 25.9545 484.901 26.5653 484.665 27.0682C484.429 27.571 484.108 27.9545 483.702 28.2188C483.295 28.483 482.835 28.6151 482.321 28.6151C481.946 28.6151 481.635 28.5526 481.388 28.4276C481.141 28.3026 480.942 28.152 480.791 27.9759C480.643 27.7969 480.528 27.6278 480.446 27.4688H480.382V30.9545H478.839ZM480.352 25.2273C480.352 25.6506 480.412 26.0213 480.531 26.3395C480.653 26.6577 480.828 26.9062 481.055 27.0852C481.286 27.2614 481.564 27.3494 481.891 27.3494C482.232 27.3494 482.517 27.2585 482.747 27.0767C482.977 26.892 483.151 26.6406 483.267 26.3224C483.386 26.0014 483.446 25.6364 483.446 25.2273C483.446 24.821 483.388 24.4602 483.271 24.1449C483.155 23.8295 482.982 23.5824 482.751 23.4034C482.521 23.2244 482.234 23.1349 481.891 23.1349C481.561 23.1349 481.281 23.2216 481.051 23.3949C480.821 23.5682 480.646 23.8111 480.527 24.1236C480.411 24.4361 480.352 24.804 480.352 25.2273ZM489.237 28.6278C488.581 28.6278 488.014 28.4915 487.537 28.2188C487.063 27.9432 486.697 27.554 486.442 27.0511C486.186 26.5455 486.058 25.9503 486.058 25.2656C486.058 24.5923 486.186 24.0014 486.442 23.4929C486.7 22.9815 487.061 22.5838 487.524 22.2997C487.987 22.0128 488.531 21.8693 489.156 21.8693C489.56 21.8693 489.94 21.9347 490.298 22.0653C490.659 22.1932 490.977 22.392 491.253 22.6619C491.531 22.9318 491.75 23.2756 491.909 23.6932C492.068 24.108 492.148 24.6023 492.148 25.1761V25.6491H486.783V24.6094H490.669C490.666 24.3139 490.602 24.0511 490.477 23.821C490.352 23.5881 490.178 23.4048 489.953 23.2713C489.732 23.1378 489.473 23.071 489.178 23.071C488.862 23.071 488.585 23.1477 488.347 23.3011C488.108 23.4517 487.922 23.6506 487.788 23.8977C487.658 24.142 487.591 24.4105 487.588 24.7031V25.6108C487.588 25.9915 487.658 26.3182 487.797 26.5909C487.936 26.8608 488.131 27.0682 488.381 27.2131C488.631 27.3551 488.923 27.4261 489.259 27.4261C489.483 27.4261 489.686 27.3949 489.868 27.3324C490.05 27.267 490.207 27.1719 490.341 27.0469C490.474 26.9219 490.575 26.767 490.643 26.5824L492.084 26.7443C491.993 27.125 491.82 27.4574 491.564 27.7415C491.311 28.0227 490.987 28.2415 490.592 28.3977C490.197 28.5511 489.746 28.6278 489.237 28.6278ZM496.308 28.6278C495.654 28.6278 495.093 28.4844 494.625 28.1974C494.159 27.9105 493.799 27.5142 493.547 27.0085C493.297 26.5 493.172 25.9148 493.172 25.2528C493.172 24.5881 493.299 24.0014 493.555 23.4929C493.811 22.9815 494.172 22.5838 494.637 22.2997C495.106 22.0128 495.66 21.8693 496.299 21.8693C496.831 21.8693 497.301 21.9673 497.71 22.1634C498.122 22.3565 498.45 22.6307 498.694 22.9858C498.939 23.3381 499.078 23.75 499.112 24.2216H497.637C497.578 23.9062 497.436 23.6435 497.211 23.4332C496.99 23.2202 496.693 23.1136 496.321 23.1136C496.005 23.1136 495.728 23.1989 495.49 23.3693C495.251 23.5369 495.065 23.7784 494.931 24.0938C494.801 24.4091 494.735 24.7869 494.735 25.2273C494.735 25.6733 494.801 26.0568 494.931 26.3778C495.062 26.696 495.245 26.9418 495.481 27.1151C495.72 27.2855 496 27.3707 496.321 27.3707C496.548 27.3707 496.751 27.3281 496.93 27.2429C497.112 27.1548 497.264 27.0284 497.386 26.8636C497.508 26.6989 497.592 26.4986 497.637 26.2628H499.112C499.075 26.7259 498.939 27.1364 498.703 27.4943C498.467 27.8494 498.146 28.1278 497.74 28.3295C497.333 28.5284 496.856 28.6278 496.308 28.6278Z" fill="#9599A7"/>
<path d="M382 48V0H380V48H382Z" fill="#E2E8F0" mask="url(#path-8-inside-3_23_335)"/>
<path d="M656.861 28.5V19.7727H660.202C660.832 19.7727 661.357 19.8722 661.774 20.071C662.195 20.267 662.509 20.5355 662.716 20.8764C662.926 21.2173 663.031 21.6037 663.031 22.0355C663.031 22.3906 662.963 22.6946 662.827 22.9474C662.69 23.1974 662.507 23.4006 662.277 23.5568C662.047 23.7131 661.79 23.8253 661.506 23.8935V23.9787C661.815 23.9957 662.112 24.0909 662.396 24.2642C662.683 24.4347 662.918 24.6761 663.099 24.9886C663.281 25.3011 663.372 25.679 663.372 26.1222C663.372 26.5739 663.263 26.9801 663.044 27.3409C662.825 27.6989 662.496 27.9815 662.055 28.1889C661.615 28.3963 661.061 28.5 660.393 28.5H656.861ZM658.442 27.179H660.142C660.716 27.179 661.129 27.0696 661.382 26.8509C661.638 26.6293 661.766 26.3452 661.766 25.9986C661.766 25.7401 661.702 25.5071 661.574 25.2997C661.446 25.0895 661.264 24.9247 661.028 24.8054C660.793 24.6832 660.511 24.6222 660.185 24.6222H658.442V27.179ZM658.442 23.4844H660.006C660.278 23.4844 660.524 23.4347 660.743 23.3352C660.962 23.233 661.134 23.0895 661.259 22.9048C661.386 22.7173 661.45 22.4957 661.45 22.2401C661.45 21.902 661.331 21.6236 661.092 21.4048C660.857 21.1861 660.506 21.0767 660.04 21.0767H658.442V23.4844ZM664.679 30.9545V21.9545H666.196V23.0369H666.286C666.365 22.8778 666.478 22.7088 666.623 22.5298C666.767 22.348 666.963 22.1932 667.211 22.0653C667.458 21.9347 667.773 21.8693 668.157 21.8693C668.662 21.8693 669.118 21.9986 669.525 22.2571C669.934 22.5128 670.257 22.892 670.496 23.3949C670.738 23.8949 670.858 24.5085 670.858 25.2358C670.858 25.9545 670.74 26.5653 670.505 27.0682C670.269 27.571 669.948 27.9545 669.542 28.2188C669.135 28.483 668.675 28.6151 668.161 28.6151C667.786 28.6151 667.475 28.5526 667.228 28.4276C666.98 28.3026 666.782 28.152 666.631 27.9759C666.483 27.7969 666.368 27.6278 666.286 27.4688H666.222V30.9545H664.679ZM666.192 25.2273C666.192 25.6506 666.252 26.0213 666.371 26.3395C666.493 26.6577 666.668 26.9062 666.895 27.0852C667.125 27.2614 667.404 27.3494 667.73 27.3494C668.071 27.3494 668.357 27.2585 668.587 27.0767C668.817 26.892 668.99 26.6406 669.107 26.3224C669.226 26.0014 669.286 25.6364 669.286 25.2273C669.286 24.821 669.228 24.4602 669.111 24.1449C668.995 23.8295 668.821 23.5824 668.591 23.4034C668.361 23.2244 668.074 23.1349 667.73 23.1349C667.401 23.1349 667.121 23.2216 666.891 23.3949C666.661 23.5682 666.486 23.8111 666.367 24.1236C666.25 24.4361 666.192 24.804 666.192 25.2273ZM674.063 28.6321C673.648 28.6321 673.275 28.5582 672.942 28.4105C672.613 28.2599 672.351 28.0384 672.158 27.7457C671.968 27.4531 671.873 27.0923 671.873 26.6634C671.873 26.294 671.941 25.9886 672.077 25.7472C672.213 25.5057 672.4 25.3125 672.635 25.1676C672.871 25.0227 673.137 24.9134 673.432 24.8395C673.73 24.7628 674.039 24.7074 674.357 24.6733C674.74 24.6335 675.051 24.598 675.29 24.5668C675.529 24.5327 675.702 24.4815 675.81 24.4134C675.921 24.3423 675.976 24.233 675.976 24.0852V24.0597C675.976 23.7386 675.881 23.4901 675.691 23.3139C675.5 23.1378 675.226 23.0497 674.868 23.0497C674.49 23.0497 674.191 23.1321 673.969 23.2969C673.75 23.4616 673.603 23.6562 673.526 23.8807L672.086 23.6761C672.199 23.2784 672.387 22.946 672.648 22.679C672.909 22.4091 673.229 22.2074 673.607 22.0739C673.985 21.9375 674.402 21.8693 674.86 21.8693C675.175 21.8693 675.489 21.9062 675.801 21.9801C676.114 22.054 676.4 22.1761 676.658 22.3466C676.917 22.5142 677.124 22.7429 677.28 23.0327C677.439 23.3224 677.519 23.6847 677.519 24.1193V28.5H676.036V27.6009H675.985C675.891 27.7827 675.759 27.9531 675.588 28.1122C675.421 28.2685 675.209 28.3949 674.953 28.4915C674.701 28.5852 674.404 28.6321 674.063 28.6321ZM674.463 27.4986C674.773 27.4986 675.042 27.4375 675.269 27.3153C675.496 27.1903 675.671 27.0256 675.793 26.821C675.918 26.6165 675.98 26.3935 675.98 26.152V25.3807C675.932 25.4205 675.85 25.4574 675.733 25.4915C675.62 25.5256 675.492 25.5554 675.35 25.581C675.208 25.6065 675.067 25.6293 674.928 25.6491C674.789 25.669 674.668 25.6861 674.566 25.7003C674.336 25.7315 674.13 25.7827 673.948 25.8537C673.766 25.9247 673.623 26.0241 673.517 26.152C673.412 26.277 673.36 26.4389 673.36 26.6378C673.36 26.9219 673.463 27.1364 673.671 27.2812C673.878 27.4261 674.142 27.4986 674.463 27.4986ZM684.537 21.9545V28.5H683.054V21.9545H684.537ZM683.843 24.9119V26.1733C683.675 26.2472 683.485 26.3139 683.272 26.3736C683.061 26.4304 682.838 26.4759 682.603 26.5099C682.37 26.544 682.137 26.5611 681.904 26.5611C681.029 26.5611 680.337 26.3651 679.828 25.973C679.323 25.5781 679.07 24.9631 679.07 24.1278V21.946H680.544V24.1278C680.544 24.4091 680.594 24.6349 680.694 24.8054C680.793 24.9759 680.944 25.1009 681.145 25.1804C681.347 25.2571 681.6 25.2955 681.904 25.2955C682.245 25.2955 682.569 25.2614 682.875 25.1932C683.182 25.125 683.505 25.0312 683.843 24.9119Z" fill="#9599A7"/>
<path d="M582 48V0H580V48H582Z" fill="#E2E8F0" mask="url(#path-11-inside-4_23_335)"/>
<path d="M829.861 19.7727H831.429V25.7216H831.51L835.614 19.7727H837.033V28.5H835.452V22.5554H835.379L831.263 28.5H829.861V19.7727ZM842.454 26.706L844.397 21.9545H845.642L842.995 28.5H841.917L839.331 21.9545H840.562L842.454 26.706ZM840.174 21.9545V28.5H838.687V21.9545H840.174ZM844.798 28.5V21.9545H846.272V28.5H844.798ZM851.697 28.5V23.2074H850.299C849.944 23.2074 849.672 23.2898 849.481 23.4545C849.291 23.6193 849.197 23.8239 849.2 24.0682C849.197 24.3125 849.287 24.5142 849.468 24.6733C849.65 24.8324 849.91 24.9119 850.248 24.9119H852.183V26.0369H850.248C849.725 26.0369 849.274 25.9545 848.893 25.7898C848.512 25.625 848.22 25.392 848.015 25.0909C847.811 24.7898 847.708 24.4375 847.708 24.0341C847.708 23.6136 847.812 23.2486 848.02 22.9389C848.23 22.6264 848.528 22.3849 848.914 22.2145C849.304 22.0412 849.765 21.9545 850.299 21.9545H853.142V28.5H851.697ZM847.47 28.5L849.298 25.142H850.819L848.987 28.5H847.47ZM857.672 28.5V21.9545H860.42C861.196 21.9545 861.808 22.1094 862.257 22.419C862.708 22.7287 862.934 23.1605 862.934 23.7145C862.934 24.081 862.806 24.3807 862.551 24.6136C862.298 24.8437 861.953 24.9986 861.515 25.0781C861.859 25.1065 862.16 25.1932 862.419 25.3381C862.68 25.483 862.885 25.6733 863.032 25.9091C863.18 26.1449 863.254 26.4162 863.254 26.723C863.254 27.0838 863.159 27.3977 862.968 27.6648C862.781 27.929 862.507 28.1349 862.146 28.2827C861.788 28.4276 861.353 28.5 860.842 28.5H857.672ZM859.116 27.2855H860.842C861.126 27.2855 861.349 27.2187 861.511 27.0852C861.673 26.9489 861.754 26.7642 861.754 26.5312C861.754 26.2614 861.673 26.0497 861.511 25.8963C861.349 25.7401 861.126 25.6619 860.842 25.6619H859.116V27.2855ZM859.116 24.6648H860.45C860.66 24.6648 860.841 24.6349 860.991 24.5753C861.142 24.5128 861.257 24.4261 861.336 24.3153C861.416 24.2017 861.456 24.0668 861.456 23.9105C861.456 23.6861 861.363 23.5099 861.179 23.3821C860.997 23.2543 860.744 23.1903 860.42 23.1903H859.116V24.6648ZM864.527 30.9545V21.9545H866.044V23.0369H866.134C866.213 22.8778 866.325 22.7088 866.47 22.5298C866.615 22.348 866.811 22.1932 867.058 22.0653C867.305 21.9347 867.621 21.8693 868.004 21.8693C868.51 21.8693 868.966 21.9986 869.372 22.2571C869.781 22.5128 870.105 22.892 870.344 23.3949C870.585 23.8949 870.706 24.5085 870.706 25.2358C870.706 25.9545 870.588 26.5653 870.352 27.0682C870.116 27.571 869.795 27.9545 869.389 28.2188C868.983 28.483 868.523 28.6151 868.009 28.6151C867.634 28.6151 867.322 28.5526 867.075 28.4276C866.828 28.3026 866.629 28.152 866.479 27.9759C866.331 27.7969 866.216 27.6278 866.134 27.4688H866.07V30.9545H864.527ZM866.04 25.2273C866.04 25.6506 866.099 26.0213 866.219 26.3395C866.341 26.6577 866.516 26.9062 866.743 27.0852C866.973 27.2614 867.251 27.3494 867.578 27.3494C867.919 27.3494 868.205 27.2585 868.435 27.0767C868.665 26.892 868.838 26.6406 868.955 26.3224C869.074 26.0014 869.134 25.6364 869.134 25.2273C869.134 24.821 869.075 24.4602 868.959 24.1449C868.842 23.8295 868.669 23.5824 868.439 23.4034C868.209 23.2244 867.922 23.1349 867.578 23.1349C867.249 23.1349 866.969 23.2216 866.739 23.3949C866.509 23.5682 866.334 23.8111 866.214 24.1236C866.098 24.4361 866.04 24.804 866.04 25.2273ZM873.911 28.6321C873.496 28.6321 873.122 28.5582 872.79 28.4105C872.46 28.2599 872.199 28.0384 872.006 27.7457C871.815 27.4531 871.72 27.0923 871.72 26.6634C871.72 26.294 871.788 25.9886 871.925 25.7472C872.061 25.5057 872.247 25.3125 872.483 25.1676C872.719 25.0227 872.984 24.9134 873.28 24.8395C873.578 24.7628 873.886 24.7074 874.205 24.6733C874.588 24.6335 874.899 24.598 875.138 24.5668C875.376 24.5327 875.55 24.4815 875.658 24.4134C875.768 24.3423 875.824 24.233 875.824 24.0852V24.0597C875.824 23.7386 875.729 23.4901 875.538 23.3139C875.348 23.1378 875.074 23.0497 874.716 23.0497C874.338 23.0497 874.038 23.1321 873.817 23.2969C873.598 23.4616 873.45 23.6562 873.374 23.8807L871.933 23.6761C872.047 23.2784 872.234 22.946 872.496 22.679C872.757 22.4091 873.077 22.2074 873.455 22.0739C873.832 21.9375 874.25 21.8693 874.707 21.8693C875.023 21.8693 875.337 21.9062 875.649 21.9801C875.962 22.054 876.247 22.1761 876.506 22.3466C876.764 22.5142 876.972 22.7429 877.128 23.0327C877.287 23.3224 877.366 23.6847 877.366 24.1193V28.5H875.884V27.6009H875.832C875.739 27.7827 875.607 27.9531 875.436 28.1122C875.268 28.2685 875.057 28.3949 874.801 28.4915C874.548 28.5852 874.251 28.6321 873.911 28.6321ZM874.311 27.4986C874.621 27.4986 874.889 27.4375 875.116 27.3153C875.344 27.1903 875.518 27.0256 875.641 26.821C875.766 26.6165 875.828 26.3935 875.828 26.152V25.3807C875.78 25.4205 875.697 25.4574 875.581 25.4915C875.467 25.5256 875.339 25.5554 875.197 25.581C875.055 25.6065 874.915 25.6293 874.776 25.6491C874.636 25.669 874.516 25.6861 874.413 25.7003C874.183 25.7315 873.977 25.7827 873.795 25.8537C873.614 25.9247 873.47 26.0241 873.365 26.152C873.26 26.277 873.207 26.4389 873.207 26.6378C873.207 26.9219 873.311 27.1364 873.518 27.2812C873.726 27.4261 873.99 27.4986 874.311 27.4986ZM884.385 21.9545V28.5H882.902V21.9545H884.385ZM883.69 24.9119V26.1733C883.523 26.2472 883.332 26.3139 883.119 26.3736C882.909 26.4304 882.686 26.4759 882.45 26.5099C882.217 26.544 881.984 26.5611 881.751 26.5611C880.876 26.5611 880.185 26.3651 879.676 25.973C879.17 25.5781 878.918 24.9631 878.918 24.1278V21.946H880.392V24.1278C880.392 24.4091 880.442 24.6349 880.541 24.8054C880.641 24.9759 880.791 25.1009 880.993 25.1804C881.195 25.2571 881.447 25.2955 881.751 25.2955C882.092 25.2955 882.416 25.2614 882.723 25.1932C883.03 25.125 883.352 25.0312 883.69 24.9119ZM887.821 28.6321C887.406 28.6321 887.032 28.5582 886.7 28.4105C886.37 28.2599 886.109 28.0384 885.916 27.7457C885.725 27.4531 885.63 27.0923 885.63 26.6634C885.63 26.294 885.699 25.9886 885.835 25.7472C885.971 25.5057 886.157 25.3125 886.393 25.1676C886.629 25.0227 886.895 24.9134 887.19 24.8395C887.488 24.7628 887.797 24.7074 888.115 24.6733C888.498 24.6335 888.809 24.598 889.048 24.5668C889.287 24.5327 889.46 24.4815 889.568 24.4134C889.679 24.3423 889.734 24.233 889.734 24.0852V24.0597C889.734 23.7386 889.639 23.4901 889.449 23.3139C889.258 23.1378 888.984 23.0497 888.626 23.0497C888.248 23.0497 887.949 23.1321 887.727 23.2969C887.508 23.4616 887.36 23.6562 887.284 23.8807L885.843 23.6761C885.957 23.2784 886.145 22.946 886.406 22.679C886.667 22.4091 886.987 22.2074 887.365 22.0739C887.743 21.9375 888.16 21.8693 888.618 21.8693C888.933 21.8693 889.247 21.9062 889.559 21.9801C889.872 22.054 890.157 22.1761 890.416 22.3466C890.674 22.5142 890.882 22.7429 891.038 23.0327C891.197 23.3224 891.277 23.6847 891.277 24.1193V28.5H889.794V27.6009H889.743C889.649 27.7827 889.517 27.9531 889.346 28.1122C889.179 28.2685 888.967 28.3949 888.711 28.4915C888.458 28.5852 888.162 28.6321 887.821 28.6321ZM888.221 27.4986C888.531 27.4986 888.799 27.4375 889.027 27.3153C889.254 27.1903 889.429 27.0256 889.551 26.821C889.676 26.6165 889.738 26.3935 889.738 26.152V25.3807C889.69 25.4205 889.608 25.4574 889.491 25.4915C889.377 25.5256 889.25 25.5554 889.108 25.581C888.966 25.6065 888.825 25.6293 888.686 25.6491C888.547 25.669 888.426 25.6861 888.324 25.7003C888.093 25.7315 887.887 25.7827 887.706 25.8537C887.524 25.9247 887.38 26.0241 887.275 26.152C887.17 26.277 887.118 26.4389 887.118 26.6378C887.118 26.9219 887.221 27.1364 887.429 27.2812C887.636 27.4261 887.9 27.4986 888.221 27.4986Z" fill="#9599A7"/>
<path d="M762 48V0H760V48H762Z" fill="#E2E8F0" mask="url(#path-14-inside-5_23_335)"/>
<path d="M1016.86 19.7727H1018.43V25.7216H1018.51L1022.61 19.7727H1024.03V28.5H1022.45V22.5554H1022.38L1018.26 28.5H1016.86V19.7727ZM1030.18 24.5881V25.8537H1026.7V24.5881H1030.18ZM1027.17 21.9545V28.5H1025.69V21.9545H1027.17ZM1031.19 21.9545V28.5H1029.71V21.9545H1031.19ZM1035.72 30.7244V19.7727H1037.27V30.7244H1035.72ZM1035.72 28.6278C1035.24 28.6278 1034.8 28.5469 1034.41 28.3849C1034.01 28.223 1033.67 27.9929 1033.38 27.6946C1033.09 27.3963 1032.87 27.0412 1032.71 26.6293C1032.55 26.2145 1032.47 25.7557 1032.47 25.2528C1032.47 24.75 1032.55 24.2912 1032.71 23.8764C1032.87 23.4616 1033.09 23.1051 1033.38 22.8068C1033.67 22.5057 1034.01 22.2741 1034.41 22.1122C1034.8 21.9503 1035.24 21.8693 1035.72 21.8693H1036.05V28.6278H1035.72ZM1035.72 27.3835H1035.92V23.1136H1035.72C1035.45 23.1136 1035.21 23.1705 1035 23.2841C1034.79 23.3949 1034.62 23.5497 1034.48 23.7486C1034.34 23.9446 1034.23 24.1719 1034.16 24.4304C1034.08 24.6861 1034.05 24.9602 1034.05 25.2528C1034.05 25.642 1034.11 25.9986 1034.24 26.3224C1034.37 26.6435 1034.56 26.9006 1034.8 27.0938C1035.05 27.2869 1035.36 27.3835 1035.72 27.3835ZM1037.27 28.6278H1036.94V21.8693H1037.27C1037.75 21.8693 1038.19 21.9503 1038.59 22.1122C1038.99 22.2741 1039.33 22.5057 1039.61 22.8068C1039.9 23.1051 1040.13 23.4616 1040.28 23.8764C1040.44 24.2912 1040.52 24.75 1040.52 25.2528C1040.52 25.7557 1040.44 26.2145 1040.28 26.6293C1040.13 27.0412 1039.9 27.3963 1039.61 27.6946C1039.33 27.9929 1038.99 28.223 1038.59 28.3849C1038.19 28.5469 1037.75 28.6278 1037.27 28.6278ZM1037.27 27.3835C1037.55 27.3835 1037.79 27.3281 1038 27.2173C1038.2 27.1065 1038.38 26.9531 1038.51 26.7571C1038.66 26.5611 1038.76 26.3352 1038.83 26.0795C1038.91 25.821 1038.94 25.5455 1038.94 25.2528C1038.94 24.8636 1038.88 24.5071 1038.75 24.1832C1038.63 23.8594 1038.44 23.6009 1038.19 23.4077C1037.94 23.2116 1037.64 23.1136 1037.27 23.1136H1037.08V27.3835H1037.27ZM1044.68 28.6278C1044.04 28.6278 1043.49 28.4872 1043.02 28.206C1042.55 27.9247 1042.18 27.5312 1041.93 27.0256C1041.67 26.5199 1041.54 25.929 1041.54 25.2528C1041.54 24.5767 1041.67 23.9844 1041.93 23.4759C1042.18 22.9673 1042.55 22.5724 1043.02 22.2912C1043.49 22.0099 1044.04 21.8693 1044.68 21.8693C1045.32 21.8693 1045.87 22.0099 1046.34 22.2912C1046.81 22.5724 1047.17 22.9673 1047.43 23.4759C1047.69 23.9844 1047.82 24.5767 1047.82 25.2528C1047.82 25.929 1047.69 26.5199 1047.43 27.0256C1047.17 27.5312 1046.81 27.9247 1046.34 28.206C1045.87 28.4872 1045.32 28.6278 1044.68 28.6278ZM1044.69 27.392C1045.03 27.392 1045.32 27.2969 1045.56 27.1065C1045.79 26.9134 1045.96 26.6548 1046.08 26.331C1046.19 26.0071 1046.25 25.6463 1046.25 25.2486C1046.25 24.848 1046.19 24.4858 1046.08 24.1619C1045.96 23.8352 1045.79 23.5753 1045.56 23.3821C1045.32 23.1889 1045.03 23.0923 1044.69 23.0923C1044.33 23.0923 1044.04 23.1889 1043.8 23.3821C1043.57 23.5753 1043.39 23.8352 1043.28 24.1619C1043.16 24.4858 1043.11 24.848 1043.11 25.2486C1043.11 25.6463 1043.16 26.0071 1043.28 26.331C1043.39 26.6548 1043.57 26.9134 1043.8 27.1065C1044.04 27.2969 1044.33 27.392 1044.69 27.392Z" fill="#9599A7"/>
<path d="M962 48V0H960V48H962Z" fill="#E2E8F0" mask="url(#path-17-inside-6_23_335)"/>
<path d="M1104 47H0V49H1104V47Z" fill="#E2E8F0" mask="url(#path-2-inside-1_23_335)"/>
<path d="M101.861 82.5V73.7727H103.203L106.842 80.0071H106.923V73.7727H108.283V82.5H106.953L103.31 76.2955H103.229V82.5H101.861ZM109.416 79.9176V78.9759H113.166V79.9176H109.416ZM111.287 78.2514C110.864 78.2514 110.496 78.1619 110.183 77.983C109.874 77.804 109.634 77.5582 109.463 77.2457C109.293 76.9332 109.207 76.5753 109.207 76.1719V75.7287C109.207 75.3281 109.291 74.9716 109.459 74.6591C109.629 74.3466 109.869 74.1009 110.179 73.9219C110.491 73.7401 110.858 73.6491 111.278 73.6491C111.705 73.6491 112.072 73.7401 112.382 73.9219C112.692 74.1009 112.93 74.3466 113.098 74.6591C113.266 74.9716 113.349 75.3281 113.349 75.7287V76.1719C113.349 76.5724 113.266 76.9304 113.098 77.2457C112.933 77.5582 112.696 77.804 112.386 77.983C112.08 78.1619 111.713 78.2514 111.287 78.2514ZM111.287 77.2628C111.58 77.2628 111.803 77.1634 111.956 76.9645C112.112 76.7656 112.19 76.5014 112.19 76.1719V75.7287C112.19 75.402 112.112 75.142 111.956 74.9489C111.803 74.7528 111.577 74.6548 111.278 74.6548C110.98 74.6548 110.754 74.7528 110.601 74.9489C110.45 75.142 110.375 75.402 110.375 75.7287V76.1719C110.375 76.5014 110.452 76.7656 110.605 76.9645C110.759 77.1634 110.986 77.2628 111.287 77.2628ZM118.497 73.7727V82.5H116.916V75.3111H116.865L114.824 76.6151V75.1662L116.993 73.7727H118.497Z" fill="#B3B9C8"/>
<path d="M302.76 78.2301V79.5H298.831V78.2301H302.76Z" fill="#B3B9C8"/>
<path d="M482.76 78.2301V79.5H478.831V78.2301H482.76Z" fill="#B3B9C8"/>
<path d="M672.76 78.2301V79.5H668.831V78.2301H672.76Z" fill="#B3B9C8"/>
<path d="M862.76 78.2301V79.5H858.831V78.2301H862.76Z" fill="#B3B9C8"/>
<path d="M1034.26 78.2301V79.5H1030.33V78.2301H1034.26Z" fill="#B3B9C8"/>
<path d="M1104 107H0V109H1104V107Z" fill="#E2E8F0" mask="url(#path-20-inside-7_23_335)"/>
<path d="M100.861 142.5V133.773H102.203L105.842 140.007H105.923V133.773H107.283V142.5H105.953L102.31 136.295H102.229V142.5H100.861ZM108.416 139.918V138.976H112.166V139.918H108.416ZM110.287 138.251C109.864 138.251 109.496 138.162 109.183 137.983C108.874 137.804 108.634 137.558 108.463 137.246C108.293 136.933 108.207 136.575 108.207 136.172V135.729C108.207 135.328 108.291 134.972 108.459 134.659C108.629 134.347 108.869 134.101 109.179 133.922C109.491 133.74 109.858 133.649 110.278 133.649C110.705 133.649 111.072 133.74 111.382 133.922C111.692 134.101 111.93 134.347 112.098 134.659C112.266 134.972 112.349 135.328 112.349 135.729V136.172C112.349 136.572 112.266 136.93 112.098 137.246C111.933 137.558 111.696 137.804 111.386 137.983C111.08 138.162 110.713 138.251 110.287 138.251ZM110.287 137.263C110.58 137.263 110.803 137.163 110.956 136.964C111.112 136.766 111.19 136.501 111.19 136.172V135.729C111.19 135.402 111.112 135.142 110.956 134.949C110.803 134.753 110.577 134.655 110.278 134.655C109.98 134.655 109.754 134.753 109.601 134.949C109.45 135.142 109.375 135.402 109.375 135.729V136.172C109.375 136.501 109.452 136.766 109.605 136.964C109.759 137.163 109.986 137.263 110.287 137.263ZM113.947 142.5V141.358L116.977 138.388C117.267 138.095 117.509 137.835 117.702 137.608C117.895 137.381 118.04 137.161 118.136 136.947C118.233 136.734 118.281 136.507 118.281 136.266C118.281 135.99 118.219 135.754 118.094 135.558C117.969 135.359 117.797 135.206 117.578 135.098C117.359 134.99 117.111 134.936 116.832 134.936C116.545 134.936 116.294 134.996 116.078 135.115C115.862 135.232 115.695 135.398 115.575 135.614C115.459 135.83 115.401 136.087 115.401 136.385H113.896C113.896 135.831 114.023 135.349 114.276 134.94C114.528 134.531 114.876 134.214 115.32 133.99C115.766 133.766 116.277 133.653 116.854 133.653C117.439 133.653 117.953 133.763 118.396 133.982C118.839 134.2 119.183 134.5 119.428 134.881C119.675 135.261 119.798 135.696 119.798 136.185C119.798 136.511 119.736 136.832 119.611 137.148C119.486 137.463 119.266 137.812 118.95 138.196C118.638 138.58 118.199 139.044 117.634 139.589L116.129 141.119V141.179H119.93V142.5H113.947Z" fill="#B3B9C8"/>
<path d="M302.76 138.23V139.5H298.831V138.23H302.76Z" fill="#B3B9C8"/>
<path d="M482.76 138.23V139.5H478.831V138.23H482.76Z" fill="#B3B9C8"/>
<path d="M672.76 138.23V139.5H668.831V138.23H672.76Z" fill="#B3B9C8"/>
<path d="M862.76 138.23V139.5H858.831V138.23H862.76Z" fill="#B3B9C8"/>
<path d="M1034.26 138.23V139.5H1030.33V138.23H1034.26Z" fill="#B3B9C8"/>
<path d="M1104 167H0V169H1104V167Z" fill="#E2E8F0" mask="url(#path-28-inside-8_23_335)"/>
<path d="M100.861 202.5V193.773H102.203L105.842 200.007H105.923V193.773H107.283V202.5H105.953L102.31 196.295H102.229V202.5H100.861ZM108.416 199.918V198.976H112.166V199.918H108.416ZM110.287 198.251C109.864 198.251 109.496 198.162 109.183 197.983C108.874 197.804 108.634 197.558 108.463 197.246C108.293 196.933 108.207 196.575 108.207 196.172V195.729C108.207 195.328 108.291 194.972 108.459 194.659C108.629 194.347 108.869 194.101 109.179 193.922C109.491 193.74 109.858 193.649 110.278 193.649C110.705 193.649 111.072 193.74 111.382 193.922C111.692 194.101 111.93 194.347 112.098 194.659C112.266 194.972 112.349 195.328 112.349 195.729V196.172C112.349 196.572 112.266 196.93 112.098 197.246C111.933 197.558 111.696 197.804 111.386 197.983C111.08 198.162 110.713 198.251 110.287 198.251ZM110.287 197.263C110.58 197.263 110.803 197.163 110.956 196.964C111.112 196.766 111.19 196.501 111.19 196.172V195.729C111.19 195.402 111.112 195.142 110.956 194.949C110.803 194.753 110.577 194.655 110.278 194.655C109.98 194.655 109.754 194.753 109.601 194.949C109.45 195.142 109.375 195.402 109.375 195.729V196.172C109.375 196.501 109.452 196.766 109.605 196.964C109.759 197.163 109.986 197.263 110.287 197.263ZM117.08 202.619C116.466 202.619 115.92 202.514 115.443 202.304C114.969 202.094 114.594 201.801 114.318 201.426C114.043 201.051 113.896 200.618 113.879 200.126H115.482C115.496 200.362 115.574 200.568 115.716 200.744C115.858 200.918 116.047 201.053 116.283 201.149C116.518 201.246 116.783 201.294 117.075 201.294C117.388 201.294 117.665 201.24 117.906 201.132C118.148 201.021 118.337 200.868 118.473 200.672C118.609 200.476 118.676 200.25 118.673 199.994C118.676 199.73 118.608 199.497 118.469 199.295C118.33 199.094 118.128 198.936 117.864 198.822C117.602 198.709 117.287 198.652 116.918 198.652H116.146V197.433H116.918C117.222 197.433 117.487 197.381 117.714 197.276C117.945 197.17 118.125 197.023 118.256 196.832C118.386 196.639 118.45 196.416 118.447 196.163C118.45 195.916 118.395 195.702 118.281 195.52C118.17 195.335 118.013 195.192 117.808 195.089C117.607 194.987 117.369 194.936 117.097 194.936C116.83 194.936 116.582 194.984 116.355 195.081C116.128 195.178 115.945 195.315 115.805 195.494C115.666 195.67 115.592 195.881 115.584 196.125H114.062C114.074 195.636 114.214 195.207 114.484 194.838C114.757 194.466 115.121 194.176 115.575 193.969C116.03 193.759 116.54 193.653 117.105 193.653C117.688 193.653 118.193 193.763 118.622 193.982C119.054 194.197 119.388 194.489 119.624 194.855C119.859 195.222 119.977 195.626 119.977 196.07C119.98 196.561 119.835 196.973 119.543 197.305C119.253 197.638 118.872 197.855 118.401 197.957V198.026C119.014 198.111 119.484 198.338 119.811 198.707C120.141 199.074 120.304 199.53 120.301 200.075C120.301 200.564 120.162 201.001 119.884 201.388C119.608 201.771 119.227 202.072 118.741 202.291C118.259 202.51 117.705 202.619 117.08 202.619Z" fill="#B3B9C8"/>
<path d="M302.76 198.23V199.5H298.831V198.23H302.76Z" fill="#B3B9C8"/>
<path d="M482.76 198.23V199.5H478.831V198.23H482.76Z" fill="#B3B9C8"/>
<path d="M672.76 198.23V199.5H668.831V198.23H672.76Z" fill="#B3B9C8"/>
<path d="M862.76 198.23V199.5H858.831V198.23H862.76Z" fill="#B3B9C8"/>
<path d="M1034.26 198.23V199.5H1030.33V198.23H1034.26Z" fill="#B3B9C8"/>
<path d="M1104 227H0V229H1104V227Z" fill="#E2E8F0" mask="url(#path-36-inside-9_23_335)"/>
</g>
<defs>
<clipPath id="clip0_23_335">
<rect width="1104" height="228" rx="20" fill="white"/>
</clipPath>
</defs>
</svg>
